<svg width="512" height="81" viewBox="0 0 512 81" fill="none" xmlns="http://www.w3.org/2000/svg">
<g filter="url(#filter0_d_14_9)">
<rect x="30" y="27.0055" width="383" height="14.5414" rx="7.27072" fill="url(#paint0_linear_14_9)" fill-opacity="0.6" shape-rendering="crispEdges"/>
</g>
<path d="M50.22 33L44.13 21.52L50.71 17.67L59.53 33H50.22ZM34.96 33V8.5H43.22V33H34.96ZM40.84 24.145V17.635H50.115V24.145H40.84ZM51.515 21.625L43.92 20.855L50.955 8.5H59.565L51.515 21.625ZM72.0991 33V29.605L71.5391 28.695V22.255C71.5391 21.3217 71.2474 20.61 70.6641 20.12C70.1041 19.63 69.1824 19.385 67.8991 19.385C67.0358 19.385 66.1608 19.525 65.2741 19.805C64.3874 20.0617 63.6291 20.4233 62.9991 20.89L60.4791 15.675C61.5991 14.975 62.9408 14.4383 64.5041 14.065C66.0674 13.6917 67.5958 13.505 69.0891 13.505C72.3791 13.505 74.9224 14.24 76.7191 15.71C78.5391 17.18 79.4491 19.5133 79.4491 22.71V33H72.0991ZM66.6741 33.35C65.1108 33.35 63.8041 33.0817 62.7541 32.545C61.7041 32.0083 60.9108 31.2967 60.3741 30.41C59.8374 29.5 59.5691 28.4967 59.5691 27.4C59.5691 26.1633 59.8841 25.1133 60.5141 24.25C61.1441 23.3867 62.1008 22.7333 63.3841 22.29C64.6908 21.8467 66.3358 21.625 68.3191 21.625H72.3091V25.44H69.5791C68.7391 25.44 68.1208 25.58 67.7241 25.86C67.3508 26.1167 67.1641 26.5133 67.1641 27.05C67.1641 27.4933 67.3274 27.8667 67.6541 28.17C68.0041 28.45 68.4708 28.59 69.0541 28.59C69.5908 28.59 70.0808 28.45 70.5241 28.17C70.9908 27.8667 71.3291 27.4 71.5391 26.77L72.5541 29.115C72.2508 30.5383 71.6091 31.6 70.6291 32.3C69.6491 33 68.3308 33.35 66.6741 33.35ZM87.0824 33V18.335L88.7974 20.015H81.2374V13.855H100.802V20.015H93.2424L94.9574 18.335V33H87.0824ZM114.243 33V29.605L113.683 28.695V22.255C113.683 21.3217 113.391 20.61 112.808 20.12C112.248 19.63 111.326 19.385 110.043 19.385C109.179 19.385 108.304 19.525 107.418 19.805C106.531 20.0617 105.773 20.4233 105.143 20.89L102.623 15.675C103.743 14.975 105.084 14.4383 106.648 14.065C108.211 13.6917 109.739 13.505 111.233 13.505C114.523 13.505 117.066 14.24 118.863 15.71C120.683 17.18 121.593 19.5133 121.593 22.71V33H114.243ZM108.818 33.35C107.254 33.35 105.948 33.0817 104.898 32.545C103.848 32.0083 103.054 31.2967 102.518 30.41C101.981 29.5 101.713 28.4967 101.713 27.4C101.713 26.1633 102.028 25.1133 102.658 24.25C103.288 23.3867 104.244 22.7333 105.528 22.29C106.834 21.8467 108.479 21.625 110.463 21.625H114.453V25.44H111.723C110.883 25.44 110.264 25.58 109.868 25.86C109.494 26.1167 109.308 26.5133 109.308 27.05C109.308 27.4933 109.471 27.8667 109.798 28.17C110.148 28.45 110.614 28.59 111.198 28.59C111.734 28.59 112.224 28.45 112.668 28.17C113.134 27.8667 113.473 27.4 113.683 26.77L114.698 29.115C114.394 30.5383 113.753 31.6 112.773 32.3C111.793 33 110.474 33.35 108.818 33.35ZM123.346 33L123.661 26.595C123.801 26.6183 123.941 26.6417 124.081 26.665C124.221 26.665 124.349 26.665 124.466 26.665C124.979 26.665 125.388 26.5717 125.691 26.385C125.994 26.175 126.228 25.8833 126.391 25.51C126.578 25.1133 126.706 24.6467 126.776 24.11C126.846 23.55 126.893 22.9083 126.916 22.185L127.196 13.855H145.466V33H137.556V18.37L139.271 20.015H132.411L134.021 18.265L133.846 22.5C133.776 24.2267 133.624 25.7783 133.391 27.155C133.158 28.5083 132.784 29.6633 132.271 30.62C131.781 31.5533 131.104 32.2767 130.241 32.79C129.401 33.28 128.328 33.525 127.021 33.525C126.508 33.525 125.936 33.4783 125.306 33.385C124.699 33.2917 124.046 33.1633 123.346 33ZM159.056 33.35C156.886 33.35 154.961 32.93 153.281 32.09C151.624 31.2267 150.318 30.0483 149.361 28.555C148.404 27.0617 147.926 25.3467 147.926 23.41C147.926 21.4733 148.404 19.7583 149.361 18.265C150.318 16.7717 151.624 15.605 153.281 14.765C154.961 13.925 156.886 13.505 159.056 13.505C161.226 13.505 163.151 13.925 164.831 14.765C166.511 15.605 167.818 16.7717 168.751 18.265C169.708 19.7583 170.186 21.4733 170.186 23.41C170.186 25.3467 169.708 27.0617 168.751 28.555C167.818 30.0483 166.511 31.2267 164.831 32.09C163.151 32.93 161.226 33.35 159.056 33.35ZM159.056 27.19C159.639 27.19 160.164 27.05 160.631 26.77C161.098 26.49 161.471 26.07 161.751 25.51C162.031 24.9267 162.171 24.2267 162.171 23.41C162.171 22.57 162.031 21.8817 161.751 21.345C161.471 20.785 161.098 20.365 160.631 20.085C160.164 19.805 159.639 19.665 159.056 19.665C158.473 19.665 157.948 19.805 157.481 20.085C157.014 20.365 156.641 20.785 156.361 21.345C156.081 21.8817 155.941 22.57 155.941 23.41C155.941 24.2267 156.081 24.9267 156.361 25.51C156.641 26.07 157.014 26.49 157.481 26.77C157.948 27.05 158.473 27.19 159.056 27.19ZM172.633 33V13.855H189.363V20.015H178.793L180.508 18.335V33H172.633ZM225.615 33L221.625 24.215L227.995 20.505L234.96 33H225.615ZM219.21 26.63V20.575H226.315V26.63H219.21ZM228.8 24.285L221.38 23.585L226.245 13.855H234.575L228.8 24.285ZM209.55 33H200.24L207.17 20.505L213.54 24.215L209.55 33ZM221.52 33H213.715V13.855H221.52V33ZM215.99 26.63H208.885V20.575H215.99V26.63ZM206.365 24.285L200.625 13.855H208.955L213.75 23.585L206.365 24.285ZM236.789 33V13.855H244.664V22.5L251.279 13.855H258.559V33H250.684V24.32L244.104 33H236.789ZM262.252 33V13.855H272.997C275.564 13.855 277.559 14.2983 278.982 15.185C280.406 16.0483 281.117 17.2733 281.117 18.86C281.117 20.4 280.464 21.6367 279.157 22.57C277.851 23.48 276.089 23.935 273.872 23.935L274.467 22.325C276.824 22.325 278.609 22.7567 279.822 23.62C281.059 24.4833 281.677 25.7433 281.677 27.4C281.677 29.1033 281.001 30.4683 279.647 31.495C278.317 32.4983 276.287 33 273.557 33H262.252ZM269.182 28.1H272.857C273.441 28.1 273.872 27.9717 274.152 27.715C274.432 27.4583 274.572 27.1083 274.572 26.665C274.572 26.1983 274.432 25.86 274.152 25.65C273.872 25.4167 273.441 25.3 272.857 25.3H269.182V28.1ZM269.182 21.415H272.297C272.904 21.415 273.336 21.2983 273.592 21.065C273.872 20.8317 274.012 20.4933 274.012 20.05C274.012 19.5833 273.872 19.2567 273.592 19.07C273.336 18.86 272.904 18.755 272.297 18.755H269.182V21.415ZM294.134 33.35C291.964 33.35 290.039 32.93 288.359 32.09C286.703 31.2267 285.396 30.0483 284.439 28.555C283.483 27.0617 283.004 25.3467 283.004 23.41C283.004 21.4733 283.483 19.7583 284.439 18.265C285.396 16.7717 286.703 15.605 288.359 14.765C290.039 13.925 291.964 13.505 294.134 13.505C296.304 13.505 298.229 13.925 299.909 14.765C301.589 15.605 302.896 16.7717 303.829 18.265C304.786 19.7583 305.264 21.4733 305.264 23.41C305.264 25.3467 304.786 27.0617 303.829 28.555C302.896 30.0483 301.589 31.2267 299.909 32.09C298.229 32.93 296.304 33.35 294.134 33.35ZM294.134 27.19C294.718 27.19 295.243 27.05 295.709 26.77C296.176 26.49 296.549 26.07 296.829 25.51C297.109 24.9267 297.249 24.2267 297.249 23.41C297.249 22.57 297.109 21.8817 296.829 21.345C296.549 20.785 296.176 20.365 295.709 20.085C295.243 19.805 294.718 19.665 294.134 19.665C293.551 19.665 293.026 19.805 292.559 20.085C292.093 20.365 291.719 20.785 291.439 21.345C291.159 21.8817 291.019 22.57 291.019 23.41C291.019 24.2267 291.159 24.9267 291.439 25.51C291.719 26.07 292.093 26.49 292.559 26.77C293.026 27.05 293.551 27.19 294.134 27.19ZM311.438 33V18.335L313.153 20.015H305.593V13.855H325.158V20.015H317.598L319.313 18.335V33H311.438ZM327.433 33V13.855H335.308V20.575H340.698V13.855H348.573V33H340.698V26.77H335.308V33H327.433ZM372.897 33V13.855H380.772V33H372.897ZM364.112 19.63C366.678 19.63 368.592 20.19 369.852 21.31C371.112 22.43 371.742 24.0167 371.742 26.07C371.742 28.2167 370.995 29.9083 369.502 31.145C368.032 32.3817 365.908 33 363.132 33H352.282V13.855H360.157V19.63H364.112ZM362.327 27.68C362.863 27.68 363.283 27.54 363.587 27.26C363.89 26.98 364.042 26.5367 364.042 25.93C364.042 25.3233 363.89 24.8917 363.587 24.635C363.283 24.3783 362.863 24.25 362.327 24.25H360.157V27.68H362.327ZM382.519 33L391.549 21.17L391.339 25.72L382.729 13.855H391.654L395.889 20.19L392.599 20.435L397.254 13.855H405.549L396.904 25.335V20.96L405.724 33H396.659L392.284 26.245L395.609 26.7L391.094 33H382.519Z" fill="black"/>
<defs>
<filter id="filter0_d_14_9" x="0" y="6.00549" width="443" height="74.5414" filterUnits="userSpaceOnUse" color-interpolation-filters="sRGB">
<feFlood flood-opacity="0" result="BackgroundImageFix"/>
<feColorMatrix in="SourceAlpha" type="matrix" values="0 0 0 0 0 0 0 0 0 0 0 0 0 0 0 0 0 0 127 0" result="hardAlpha"/>
<feOffset dy="9"/>
<feGaussianBlur stdDeviation="15"/>
<feComposite in2="hardAlpha" operator="out"/>
<feColorMatrix type="matrix" values="0 0 0 0 1 0 0 0 0 0.121569 0 0 0 0 0.145098 0 0 0 0.7 0"/>
<feBlend mode="normal" in2="BackgroundImageFix" result="effect1_dropShadow_14_9"/>
<feBlend mode="normal" in="SourceGraphic" in2="effect1_dropShadow_14_9" result="shape"/>
</filter>
<linearGradient id="paint0_linear_14_9" x1="124.456" y1="27.0055" x2="146.38" y2="92.3579" gradientUnits="userSpaceOnUse">
<stop stop-color="#FF3D00"/>
<stop offset="1" stop-color="#FF004D"/>
</linearGradient>
</defs>
</svg>
