<svg width="34" height="34" viewBox="0 0 34 34" fill="none" xmlns="http://www.w3.org/2000/svg">
<g id="Order panel icon">
<circle id="Ellipse 1" cx="17" cy="17" r="17" fill="black"/>
<path id="Vector" d="M14.6033 24C14.273 24 13.9904 23.8728 13.7553 23.6184C13.5199 23.3636 13.4022 23.0575 13.4022 22.7C13.4022 22.3425 13.5199 22.0363 13.7553 21.7815C13.9904 21.5272 14.273 21.4 14.6033 21.4C14.9336 21.4 15.2163 21.5272 15.4513 21.7815C15.6867 22.0363 15.8044 22.3425 15.8044 22.7C15.8044 23.0575 15.6867 23.3636 15.4513 23.6184C15.2163 23.8728 14.9336 24 14.6033 24ZM20.6089 24C20.2786 24 19.9959 23.8728 19.7609 23.6184C19.5255 23.3636 19.4078 23.0575 19.4078 22.7C19.4078 22.3425 19.5255 22.0363 19.7609 21.7815C19.9959 21.5272 20.2786 21.4 20.6089 21.4C20.9392 21.4 21.222 21.5272 21.4575 21.7815C21.6925 22.0363 21.81 22.3425 21.81 22.7C21.81 23.0575 21.6925 23.3636 21.4575 23.6184C21.222 23.8728 20.9392 24 20.6089 24ZM14.0929 13.6L15.5342 16.85H19.7381L21.3896 13.6H14.0929ZM13.5223 12.3H22.3805C22.6107 12.3 22.7859 12.4109 22.906 12.6328C23.0261 12.8551 23.0311 13.08 22.921 13.3075L20.789 17.4675C20.6789 17.6842 20.5312 17.8521 20.3458 17.9713C20.1609 18.0904 19.9583 18.15 19.7381 18.15H15.2639L14.6033 19.45H21.81V20.75H14.6033C14.1529 20.75 13.8126 20.5359 13.5824 20.1078C13.3522 19.6801 13.3422 19.255 13.5524 18.8325L14.3631 17.24L12.2011 12.3H11V11H12.9518L13.5223 12.3Z" fill="white"/>
</g>
</svg>
