<svg width="503" height="106" viewBox="0 0 503 106" fill="none" xmlns="http://www.w3.org/2000/svg">
<g filter="url(#filter0_d_8_168)">
<rect x="20" y="68" width="306" height="14" rx="5" fill="url(#paint0_linear_8_168)" fill-opacity="0.4" shape-rendering="crispEdges"/>
</g>
<path d="M26.17 33V8.5H49.865V33H41.745V13.155L43.53 14.905H32.505L34.29 13.155V33H26.17ZM63.7523 33.35C61.5823 33.35 59.6573 32.93 57.9773 32.09C56.3207 31.2267 55.014 30.0483 54.0573 28.555C53.1007 27.0617 52.6223 25.3467 52.6223 23.41C52.6223 21.4733 53.1007 19.7583 54.0573 18.265C55.014 16.7717 56.3207 15.605 57.9773 14.765C59.6573 13.925 61.5823 13.505 63.7523 13.505C65.9223 13.505 67.8473 13.925 69.5273 14.765C71.2073 15.605 72.514 16.7717 73.4473 18.265C74.404 19.7583 74.8823 21.4733 74.8823 23.41C74.8823 25.3467 74.404 27.0617 73.4473 28.555C72.514 30.0483 71.2073 31.2267 69.5273 32.09C67.8473 32.93 65.9223 33.35 63.7523 33.35ZM63.7523 27.19C64.3357 27.19 64.8607 27.05 65.3273 26.77C65.794 26.49 66.1673 26.07 66.4473 25.51C66.7273 24.9267 66.8673 24.2267 66.8673 23.41C66.8673 22.57 66.7273 21.8817 66.4473 21.345C66.1673 20.785 65.794 20.365 65.3273 20.085C64.8607 19.805 64.3357 19.665 63.7523 19.665C63.169 19.665 62.644 19.805 62.1773 20.085C61.7107 20.365 61.3373 20.785 61.0573 21.345C60.7773 21.8817 60.6373 22.57 60.6373 23.41C60.6373 24.2267 60.7773 24.9267 61.0573 25.51C61.3373 26.07 61.7107 26.49 62.1773 26.77C62.644 27.05 63.169 27.19 63.7523 27.19ZM89.4396 26.21C88.9263 26.5833 88.2613 26.8983 87.4446 27.155C86.6513 27.3883 85.6713 27.505 84.5046 27.505C81.7513 27.505 79.6863 26.8983 78.3096 25.685C76.9563 24.4483 76.2796 22.4533 76.2796 19.7V13.855H84.1546V19.175C84.1546 20.155 84.3413 20.8317 84.7146 21.205C85.0879 21.555 85.6479 21.73 86.3946 21.73C87.0479 21.73 87.6196 21.66 88.1096 21.52C88.6229 21.3567 89.0546 21.1467 89.4046 20.89L89.4396 26.21ZM88.9146 33V13.855H96.7896V33H88.9146ZM110.828 33.35C108.495 33.35 106.453 32.9183 104.703 32.055C102.977 31.1917 101.635 30.0133 100.678 28.52C99.7218 27.0033 99.2434 25.3 99.2434 23.41C99.2434 21.4733 99.7101 19.7583 100.643 18.265C101.6 16.7717 102.895 15.605 104.528 14.765C106.185 13.925 108.04 13.505 110.093 13.505C111.983 13.505 113.722 13.8783 115.308 14.625C116.918 15.3717 118.202 16.48 119.158 17.95C120.138 19.42 120.628 21.24 120.628 23.41C120.628 23.69 120.617 24.005 120.593 24.355C120.57 24.6817 120.547 24.985 120.523 25.265H105.788V21.45H116.323L113.348 22.465C113.348 21.7183 113.208 21.0883 112.928 20.575C112.672 20.0383 112.31 19.63 111.843 19.35C111.377 19.0467 110.817 18.895 110.163 18.895C109.51 18.895 108.938 19.0467 108.448 19.35C107.982 19.63 107.62 20.0383 107.363 20.575C107.107 21.0883 106.978 21.7183 106.978 22.465V23.655C106.978 24.4717 107.142 25.1717 107.468 25.755C107.795 26.3383 108.262 26.7817 108.868 27.085C109.475 27.365 110.21 27.505 111.073 27.505C111.96 27.505 112.683 27.3883 113.243 27.155C113.827 26.9217 114.433 26.5717 115.063 26.105L119.193 30.27C118.26 31.2733 117.105 32.0433 115.728 32.58C114.375 33.0933 112.742 33.35 110.828 33.35ZM123.472 33V13.855H131.837L137.927 25.79H134.637L141.532 13.855H148.952L149.022 33H141.917L141.882 21.485L143.107 22.325L137.822 31.495H134.497L129.212 21.73L130.577 21.38V33H123.472ZM157.211 40.14C156.161 40.14 155.087 39.9767 153.991 39.65C152.917 39.3467 152.054 38.9383 151.401 38.425L154.026 33C154.422 33.3033 154.866 33.5483 155.356 33.735C155.869 33.9217 156.359 34.015 156.826 34.015C157.526 34.015 158.062 33.8633 158.436 33.56C158.809 33.28 159.112 32.8483 159.346 32.265L160.151 30.235L160.711 29.465L166.836 13.855H174.326L166.451 33.385C165.751 35.135 164.934 36.5 164.001 37.48C163.091 38.46 162.064 39.1483 160.921 39.545C159.801 39.9417 158.564 40.14 157.211 40.14ZM159.066 33.875L150.736 13.855H158.856L164.596 28.765L159.066 33.875ZM186.568 33V13.855H197.313C199.88 13.855 201.875 14.2983 203.298 15.185C204.721 16.0483 205.433 17.2733 205.433 18.86C205.433 20.4 204.78 21.6367 203.473 22.57C202.166 23.48 200.405 23.935 198.188 23.935L198.783 22.325C201.14 22.325 202.925 22.7567 204.138 23.62C205.375 24.4833 205.993 25.7433 205.993 27.4C205.993 29.1033 205.316 30.4683 203.963 31.495C202.633 32.4983 200.603 33 197.873 33H186.568ZM193.498 28.1H197.173C197.756 28.1 198.188 27.9717 198.468 27.715C198.748 27.4583 198.888 27.1083 198.888 26.665C198.888 26.1983 198.748 25.86 198.468 25.65C198.188 25.4167 197.756 25.3 197.173 25.3H193.498V28.1ZM193.498 21.415H196.613C197.22 21.415 197.651 21.2983 197.908 21.065C198.188 20.8317 198.328 20.4933 198.328 20.05C198.328 19.5833 198.188 19.2567 197.908 19.07C197.651 18.86 197.22 18.755 196.613 18.755H193.498V21.415ZM229.195 33V13.855H237.07V33H229.195ZM220.41 19.63C222.976 19.63 224.89 20.19 226.15 21.31C227.41 22.43 228.04 24.0167 228.04 26.07C228.04 28.2167 227.293 29.9083 225.8 31.145C224.33 32.3817 222.206 33 219.43 33H208.58V13.855H216.455V19.63H220.41ZM218.625 27.68C219.161 27.68 219.581 27.54 219.885 27.26C220.188 26.98 220.34 26.5367 220.34 25.93C220.34 25.3233 220.188 24.8917 219.885 24.635C219.581 24.3783 219.161 24.25 218.625 24.25H216.455V27.68H218.625ZM251.137 33.56C249.597 33.56 248.139 33.35 246.762 32.93C245.409 32.51 244.219 31.8217 243.192 30.865C242.165 29.9083 241.36 28.6483 240.777 27.085C240.194 25.5217 239.902 23.5967 239.902 21.31C239.902 19.8633 240.03 18.5217 240.287 17.285C240.544 16.025 240.94 14.87 241.477 13.82C242.014 12.77 242.702 11.8483 243.542 11.055C244.382 10.2383 245.385 9.56166 246.552 9.025C247.719 8.465 249.049 8.045 250.542 7.765L260.062 6.05L261.112 12.525L253.062 13.96C252.549 14.0533 252.024 14.17 251.487 14.31C250.95 14.4267 250.437 14.6017 249.947 14.835C249.457 15.045 249.014 15.3483 248.617 15.745C248.22 16.1417 247.905 16.655 247.672 17.285C247.462 17.915 247.357 18.6967 247.357 19.63C247.357 19.91 247.369 20.1433 247.392 20.33C247.415 20.5167 247.439 20.7383 247.462 20.995C247.485 21.2283 247.497 21.6017 247.497 22.115L245.502 20.365C246.109 19.525 246.797 18.8133 247.567 18.23C248.337 17.6233 249.212 17.1567 250.192 16.83C251.172 16.5033 252.28 16.34 253.517 16.34C255.384 16.34 256.97 16.69 258.277 17.39C259.607 18.09 260.61 19.0583 261.287 20.295C261.987 21.5083 262.337 22.8967 262.337 24.46C262.337 26.3733 261.847 28.0067 260.867 29.36C259.887 30.7133 258.557 31.7517 256.877 32.475C255.197 33.1983 253.284 33.56 251.137 33.56ZM251.277 27.715C251.884 27.715 252.409 27.5867 252.852 27.33C253.295 27.05 253.645 26.6767 253.902 26.21C254.159 25.7433 254.287 25.2183 254.287 24.635C254.287 24.0283 254.159 23.515 253.902 23.095C253.645 22.675 253.284 22.3483 252.817 22.115C252.374 21.8817 251.86 21.765 251.277 21.765C250.67 21.765 250.134 21.8817 249.667 22.115C249.2 22.3483 248.839 22.675 248.582 23.095C248.325 23.4917 248.197 23.97 248.197 24.53C248.197 25.1367 248.325 25.685 248.582 26.175C248.839 26.6417 249.2 27.015 249.667 27.295C250.134 27.575 250.67 27.715 251.277 27.715ZM264.771 33V13.855H272.646V22.5L279.261 13.855H286.541V33H278.666V24.32L272.086 33H264.771ZM303.01 33.35C301.353 33.35 299.977 33 298.88 32.3C297.807 31.5767 297.013 30.4917 296.5 29.045C295.987 27.575 295.73 25.7083 295.73 23.445C295.73 21.135 295.963 19.2567 296.43 17.81C296.92 16.34 297.702 15.255 298.775 14.555C299.848 13.855 301.26 13.505 303.01 13.505C304.69 13.505 306.23 13.9133 307.63 14.73C309.03 15.5233 310.15 16.6667 310.99 18.16C311.83 19.63 312.25 21.3917 312.25 23.445C312.25 25.4983 311.83 27.2717 310.99 28.765C310.15 30.235 309.03 31.3667 307.63 32.16C306.23 32.9533 304.69 33.35 303.01 33.35ZM290.235 39.79V13.855H297.76V16.445L297.795 23.445L298.145 30.445V39.79H290.235ZM301.12 27.19C301.703 27.19 302.228 27.05 302.695 26.77C303.162 26.49 303.535 26.07 303.815 25.51C304.095 24.95 304.235 24.2617 304.235 23.445C304.235 22.605 304.095 21.905 303.815 21.345C303.535 20.785 303.162 20.365 302.695 20.085C302.228 19.805 301.703 19.665 301.12 19.665C300.537 19.665 300.012 19.805 299.545 20.085C299.078 20.365 298.705 20.785 298.425 21.345C298.145 21.905 298.005 22.605 298.005 23.445C298.005 24.2617 298.145 24.95 298.425 25.51C298.705 26.07 299.078 26.49 299.545 26.77C300.012 27.05 300.537 27.19 301.12 27.19ZM325.497 33V29.605L324.937 28.695V22.255C324.937 21.3217 324.645 20.61 324.062 20.12C323.502 19.63 322.58 19.385 321.297 19.385C320.433 19.385 319.558 19.525 318.672 19.805C317.785 20.0617 317.027 20.4233 316.397 20.89L313.877 15.675C314.997 14.975 316.338 14.4383 317.902 14.065C319.465 13.6917 320.993 13.505 322.487 13.505C325.777 13.505 328.32 14.24 330.117 15.71C331.937 17.18 332.847 19.5133 332.847 22.71V33H325.497ZM320.072 33.35C318.508 33.35 317.202 33.0817 316.152 32.545C315.102 32.0083 314.308 31.2967 313.772 30.41C313.235 29.5 312.967 28.4967 312.967 27.4C312.967 26.1633 313.282 25.1133 313.912 24.25C314.542 23.3867 315.498 22.7333 316.782 22.29C318.088 21.8467 319.733 21.625 321.717 21.625H325.707V25.44H322.977C322.137 25.44 321.518 25.58 321.122 25.86C320.748 26.1167 320.562 26.5133 320.562 27.05C320.562 27.4933 320.725 27.8667 321.052 28.17C321.402 28.45 321.868 28.59 322.452 28.59C322.988 28.59 323.478 28.45 323.922 28.17C324.388 27.8667 324.727 27.4 324.937 26.77L325.952 29.115C325.648 30.5383 325.007 31.6 324.027 32.3C323.047 33 321.728 33.35 320.072 33.35ZM336.07 33V13.855H343.945V20.015H349.405V26.56H343.945V33H336.07ZM355.53 33.35C353.453 33.35 351.598 32.93 349.965 32.09C348.355 31.2267 347.083 30.0483 346.15 28.555C345.24 27.0617 344.785 25.3467 344.785 23.41C344.785 21.4733 345.24 19.7583 346.15 18.265C347.083 16.7717 348.355 15.605 349.965 14.765C351.598 13.925 353.453 13.505 355.53 13.505C357.63 13.505 359.485 13.925 361.095 14.765C362.705 15.605 363.965 16.7717 364.875 18.265C365.808 19.7583 366.275 21.4733 366.275 23.41C366.275 25.3467 365.808 27.0617 364.875 28.555C363.965 30.0483 362.705 31.2267 361.095 32.09C359.485 32.93 357.63 33.35 355.53 33.35ZM355.53 27.19C356.09 27.19 356.592 27.05 357.035 26.77C357.478 26.49 357.828 26.07 358.085 25.51C358.342 24.9267 358.47 24.2267 358.47 23.41C358.47 22.57 358.342 21.8817 358.085 21.345C357.828 20.785 357.478 20.365 357.035 20.085C356.592 19.805 356.09 19.665 355.53 19.665C354.993 19.665 354.492 19.805 354.025 20.085C353.582 20.365 353.232 20.785 352.975 21.345C352.718 21.8817 352.59 22.57 352.59 23.41C352.59 24.2267 352.718 24.9267 352.975 25.51C353.232 26.07 353.582 26.49 354.025 26.77C354.492 27.05 354.993 27.19 355.53 27.19ZM372.472 33V18.335L374.187 20.015H366.627V13.855H386.192V20.015H378.632L380.347 18.335V33H372.472ZM25.855 73V53.855H33.73V60.575H39.12V53.855H46.995V73H39.12V66.77H33.73V73H25.855ZM61.8686 73V69.605L61.3086 68.695V62.255C61.3086 61.3217 61.017 60.61 60.4336 60.12C59.8736 59.63 58.952 59.385 57.6686 59.385C56.8053 59.385 55.9303 59.525 55.0436 59.805C54.157 60.0617 53.3986 60.4233 52.7686 60.89L50.2486 55.675C51.3686 54.975 52.7103 54.4383 54.2736 54.065C55.837 53.6917 57.3653 53.505 58.8586 53.505C62.1486 53.505 64.692 54.24 66.4886 55.71C68.3086 57.18 69.2186 59.5133 69.2186 62.71V73H61.8686ZM56.4436 73.35C54.8803 73.35 53.5736 73.0817 52.5236 72.545C51.4736 72.0083 50.6803 71.2967 50.1436 70.41C49.607 69.5 49.3386 68.4967 49.3386 67.4C49.3386 66.1633 49.6536 65.1133 50.2836 64.25C50.9136 63.3867 51.8703 62.7333 53.1536 62.29C54.4603 61.8467 56.1053 61.625 58.0886 61.625H62.0786V65.44H59.3486C58.5086 65.44 57.8903 65.58 57.4936 65.86C57.1203 66.1167 56.9336 66.5133 56.9336 67.05C56.9336 67.4933 57.097 67.8667 57.4236 68.17C57.7736 68.45 58.2403 68.59 58.8236 68.59C59.3603 68.59 59.8503 68.45 60.2936 68.17C60.7603 67.8667 61.0986 67.4 61.3086 66.77L62.3236 69.115C62.0203 70.5383 61.3786 71.6 60.3986 72.3C59.4186 73 58.1003 73.35 56.4436 73.35ZM85.9869 66.805L84.2719 68.52V53.855H92.1469V68.52L90.3969 66.805H97.7819L96.0669 68.52V53.855H103.907V73H72.4419V53.855H80.3169V68.52L78.6019 66.805H85.9869ZM107.613 73V53.855H115.488V62.5L122.103 53.855H129.383V73H121.508V64.32L114.928 73H107.613ZM131.117 73L140.147 61.17L139.937 65.72L131.327 53.855H140.252L144.487 60.19L141.197 60.435L145.852 53.855H154.147L145.502 65.335V60.96L154.322 73H145.257L140.882 66.245L144.207 66.7L139.692 73H131.117ZM179.943 69.605V60.015H175.988L175.953 61.205C175.929 62.0217 175.883 62.78 175.813 63.48C175.766 64.18 175.661 64.81 175.498 65.37C175.334 65.9067 175.089 66.385 174.763 66.805C174.459 67.2017 174.028 67.5283 173.468 67.785L165.733 66.805C166.339 66.805 166.841 66.6533 167.238 66.35C167.634 66.0233 167.938 65.58 168.148 65.02C168.381 64.4367 168.544 63.7717 168.638 63.025C168.754 62.2783 168.824 61.4733 168.848 60.61L169.093 53.855H187.818V69.605H179.943ZM165.173 76.78V66.805H190.373V76.78H183.058V73H172.488V76.78H165.173ZM205.461 73.35C203.804 73.35 202.428 73 201.331 72.3C200.258 71.5767 199.464 70.4917 198.951 69.045C198.438 67.575 198.181 65.7083 198.181 63.445C198.181 61.135 198.414 59.2567 198.881 57.81C199.371 56.34 200.153 55.255 201.226 54.555C202.299 53.855 203.711 53.505 205.461 53.505C207.141 53.505 208.681 53.9133 210.081 54.73C211.481 55.5233 212.601 56.6667 213.441 58.16C214.281 59.63 214.701 61.3917 214.701 63.445C214.701 65.4983 214.281 67.2717 213.441 68.765C212.601 70.235 211.481 71.3667 210.081 72.16C208.681 72.9533 207.141 73.35 205.461 73.35ZM192.686 79.79V53.855H200.211V56.445L200.246 63.445L200.596 70.445V79.79H192.686ZM203.571 67.19C204.154 67.19 204.679 67.05 205.146 66.77C205.613 66.49 205.986 66.07 206.266 65.51C206.546 64.95 206.686 64.2617 206.686 63.445C206.686 62.605 206.546 61.905 206.266 61.345C205.986 60.785 205.613 60.365 205.146 60.085C204.679 59.805 204.154 59.665 203.571 59.665C202.988 59.665 202.463 59.805 201.996 60.085C201.529 60.365 201.156 60.785 200.876 61.345C200.596 61.905 200.456 62.605 200.456 63.445C200.456 64.2617 200.596 64.95 200.876 65.51C201.156 66.07 201.529 66.49 201.996 66.77C202.463 67.05 202.988 67.19 203.571 67.19ZM221.264 80.14C220.214 80.14 219.14 79.9767 218.044 79.65C216.97 79.3467 216.107 78.9383 215.454 78.425L218.079 73C218.475 73.3033 218.919 73.5483 219.409 73.735C219.922 73.9217 220.412 74.015 220.879 74.015C221.579 74.015 222.115 73.8633 222.489 73.56C222.862 73.28 223.165 72.8483 223.399 72.265L224.204 70.235L224.764 69.465L230.889 53.855H238.379L230.504 73.385C229.804 75.135 228.987 76.5 228.054 77.48C227.144 78.46 226.117 79.1483 224.974 79.545C223.854 79.9417 222.617 80.14 221.264 80.14ZM223.119 73.875L214.789 53.855H222.909L228.649 68.765L223.119 73.875ZM247.206 73.455C249.119 73.455 250.857 73.2217 252.421 72.755C254.007 72.2883 255.279 71.5883 256.236 70.655C257.192 69.7217 257.671 68.5667 257.671 67.19C257.671 65.7667 257.064 64.635 255.851 63.795C254.637 62.955 253.004 62.535 250.951 62.535L250.776 63.935C251.966 63.935 253.039 63.7133 253.996 63.27C254.952 62.8267 255.711 62.2317 256.271 61.485C256.854 60.7383 257.146 59.8983 257.146 58.965C257.146 57.6817 256.691 56.6317 255.781 55.815C254.871 54.9983 253.646 54.3917 252.106 53.995C250.566 53.5983 248.862 53.4117 246.996 53.435C245.666 53.4583 244.289 53.6217 242.866 53.925C241.466 54.2283 240.112 54.6367 238.806 55.15L240.591 60.155C241.687 59.7817 242.749 59.49 243.776 59.28C244.802 59.07 245.782 58.965 246.716 58.965C247.346 58.965 247.836 59.0117 248.186 59.105C248.559 59.1983 248.816 59.3267 248.956 59.49C249.119 59.6533 249.201 59.8517 249.201 60.085C249.201 60.3183 249.142 60.5167 249.026 60.68C248.909 60.8433 248.722 60.96 248.466 61.03C248.232 61.1 247.917 61.135 247.521 61.135H243.881V65.545H248.256C248.792 65.545 249.166 65.6267 249.376 65.79C249.609 65.93 249.726 66.1867 249.726 66.56C249.726 66.8633 249.609 67.1083 249.376 67.295C249.142 67.4817 248.816 67.6217 248.396 67.715C247.999 67.8083 247.532 67.855 246.996 67.855C245.806 67.855 244.651 67.7733 243.531 67.61C242.434 67.4467 241.337 67.1667 240.241 66.77L238.246 71.985C239.692 72.4983 241.174 72.8717 242.691 73.105C244.231 73.3383 245.736 73.455 247.206 73.455ZM270.516 73.35C268.183 73.35 266.141 72.9183 264.391 72.055C262.664 71.1917 261.323 70.0133 260.366 68.52C259.409 67.0033 258.931 65.3 258.931 63.41C258.931 61.4733 259.398 59.7583 260.331 58.265C261.288 56.7717 262.583 55.605 264.216 54.765C265.873 53.925 267.728 53.505 269.781 53.505C271.671 53.505 273.409 53.8783 274.996 54.625C276.606 55.3717 277.889 56.48 278.846 57.95C279.826 59.42 280.316 61.24 280.316 63.41C280.316 63.69 280.304 64.005 280.281 64.355C280.258 64.6817 280.234 64.985 280.211 65.265H265.476V61.45H276.011L273.036 62.465C273.036 61.7183 272.896 61.0883 272.616 60.575C272.359 60.0383 271.998 59.63 271.531 59.35C271.064 59.0467 270.504 58.895 269.851 58.895C269.198 58.895 268.626 59.0467 268.136 59.35C267.669 59.63 267.308 60.0383 267.051 60.575C266.794 61.0883 266.666 61.7183 266.666 62.465V63.655C266.666 64.4717 266.829 65.1717 267.156 65.755C267.483 66.3383 267.949 66.7817 268.556 67.085C269.163 67.365 269.898 67.505 270.761 67.505C271.648 67.505 272.371 67.3883 272.931 67.155C273.514 66.9217 274.121 66.5717 274.751 66.105L278.881 70.27C277.948 71.2733 276.793 72.0433 275.416 72.58C274.063 73.0933 272.429 73.35 270.516 73.35ZM283.16 73V53.855H291.035V62.5L297.65 53.855H304.93V73H297.055V64.32L290.475 73H283.16ZM293.52 52.28C291.07 52.28 289.285 51.79 288.165 50.81C287.068 49.8067 286.52 48.255 286.52 46.155H291.595C291.595 46.8783 291.723 47.45 291.98 47.87C292.236 48.2667 292.738 48.465 293.485 48.465C294.208 48.465 294.71 48.2667 294.99 47.87C295.293 47.45 295.445 46.8783 295.445 46.155H300.59C300.59 48.255 300.018 49.8067 298.875 50.81C297.755 51.79 295.97 52.28 293.52 52.28ZM315.415 63.62C315.415 62.92 315.52 62.29 315.73 61.73C315.963 61.17 316.243 60.6683 316.57 60.225C316.92 59.7817 317.282 59.385 317.655 59.035C318.052 58.6617 318.413 58.3117 318.74 57.985C319.09 57.6583 319.37 57.3317 319.58 57.005C319.813 56.6783 319.93 56.34 319.93 55.99C319.93 55.4533 319.697 55.045 319.23 54.765C318.787 54.485 318.238 54.345 317.585 54.345C316.838 54.345 316.138 54.555 315.485 54.975C314.832 55.395 314.318 55.9783 313.945 56.725L307.715 53.61C308.602 51.93 309.943 50.565 311.74 49.515C313.537 48.465 315.835 47.94 318.635 47.94C320.478 47.94 322.112 48.1967 323.535 48.71C324.982 49.2 326.125 49.9467 326.965 50.95C327.805 51.93 328.225 53.155 328.225 54.625C328.225 55.5117 328.085 56.2933 327.805 56.97C327.548 57.6467 327.198 58.2417 326.755 58.755C326.335 59.245 325.892 59.7 325.425 60.12C324.958 60.54 324.503 60.9367 324.06 61.31C323.64 61.66 323.29 62.0217 323.01 62.395C322.753 62.7683 322.625 63.1767 322.625 63.62H315.415ZM319.02 73.35C317.667 73.35 316.558 72.9417 315.695 72.125C314.832 71.285 314.4 70.2933 314.4 69.15C314.4 67.9833 314.832 67.0033 315.695 66.21C316.558 65.4167 317.667 65.02 319.02 65.02C320.397 65.02 321.505 65.4167 322.345 66.21C323.208 67.0033 323.64 67.9833 323.64 69.15C323.64 70.2933 323.208 71.285 322.345 72.125C321.505 72.9417 320.397 73.35 319.02 73.35Z" fill="black"/>
<defs>
<filter id="filter0_d_8_168" x="0" y="52" width="346" height="54" filterUnits="userSpaceOnUse" color-interpolation-filters="sRGB">
<feFlood flood-opacity="0" result="BackgroundImageFix"/>
<feColorMatrix in="SourceAlpha" type="matrix" values="0 0 0 0 0 0 0 0 0 0 0 0 0 0 0 0 0 0 127 0" result="hardAlpha"/>
<feOffset dy="4"/>
<feGaussianBlur stdDeviation="10"/>
<feComposite in2="hardAlpha" operator="out"/>
<feColorMatrix type="matrix" values="0 0 0 0 1 0 0 0 0 0 0 0 0 0 0.3 0 0 0 0.2 0"/>
<feBlend mode="normal" in2="BackgroundImageFix" result="effect1_dropShadow_8_168"/>
<feBlend mode="normal" in="SourceGraphic" in2="effect1_dropShadow_8_168" result="shape"/>
</filter>
<linearGradient id="paint0_linear_8_168" x1="86.5" y1="68" x2="265.5" y2="86.5" gradientUnits="userSpaceOnUse">
<stop stop-color="#FFD850"/>
<stop offset="1" stop-color="#FF004D"/>
</linearGradient>
</defs>
</svg>
