<svg width="31" height="27" viewBox="0 0 31 27" fill="none" xmlns="http://www.w3.org/2000/svg">
<path id="Vector" d="M16.1091 10.801L25.1875 13.813V26.1001C25.1875 26.3387 25.0854 26.5676 24.9038 26.7364C24.7221 26.9052 24.4757 27 24.2188 27H20.3438C20.0868 27 19.8404 26.9052 19.6587 26.7364C19.4771 26.5676 19.375 26.3387 19.375 26.1001V19.8004H9.6875V26.1001C9.6875 26.3387 9.58543 26.5676 9.40376 26.7364C9.22208 26.9052 8.97568 27 8.71875 27H4.84375C4.58682 27 4.34042 26.9052 4.15874 26.7364C3.97706 26.5676 3.875 26.3387 3.875 26.1001V14.0683C1.62508 13.3231 0 11.3443 0 9.00107C0 8.52371 0.204129 8.0659 0.567481 7.72836C0.930832 7.39081 1.42364 7.20118 1.9375 7.20118C2.45136 7.20118 2.94417 7.39081 3.30752 7.72836C3.67087 8.0659 3.875 8.52371 3.875 9.00107C3.87596 9.47816 4.0804 9.93545 4.44354 10.2728C4.80668 10.6102 5.29894 10.8001 5.8125 10.801H16.1091ZM31 4.50134V6.30123C31 7.25595 30.5917 8.17157 29.865 8.84667C29.1383 9.52176 28.1527 9.90102 27.125 9.90102H25.1875V11.9023L17.4375 9.33124V0.901554C17.4375 0.100039 18.4801 -0.301562 19.091 0.265404L20.7428 1.8015H23.9899C24.6504 1.8015 25.4279 2.24697 25.7227 2.7965L26.1562 3.60139H30.0312C30.2882 3.60139 30.5346 3.69621 30.7163 3.86498C30.8979 4.03375 31 4.26266 31 4.50134ZM24.2188 4.50134C24.2188 4.32335 24.1619 4.14935 24.0555 4.00136C23.949 3.85336 23.7977 3.73801 23.6207 3.6699C23.4437 3.60178 23.2489 3.58396 23.061 3.61869C22.8731 3.65341 22.7005 3.73912 22.565 3.86498C22.4295 3.99084 22.3372 4.1512 22.2999 4.32577C22.2625 4.50034 22.2817 4.68129 22.355 4.84573C22.4283 5.01018 22.5525 5.15073 22.7118 5.24962C22.8711 5.34851 23.0584 5.40129 23.25 5.40129C23.5069 5.40129 23.7533 5.30647 23.935 5.1377C24.1167 4.96892 24.2188 4.74002 24.2188 4.50134Z" fill="white"/>
</svg>
