<svg width="367" height="84" viewBox="0 0 367 84" fill="none" xmlns="http://www.w3.org/2000/svg">
<g filter="url(#filter0_d_8_143)">
<rect x="7" y="7" width="70" height="70" rx="20" fill="#5077FF" shape-rendering="crispEdges"/>
<path d="M39.75 47.25H44.25V43.5H48V39H44.25V35.25H39.75V39H36V43.5H39.75V47.25ZM42 57C38.525 56.125 35.6565 54.131 33.3945 51.018C31.1315 47.906 30 44.45 30 40.65V31.5L42 27L54 31.5V40.65C54 44.45 52.869 47.906 50.607 51.018C48.344 54.131 45.475 56.125 42 57Z" fill="white"/>
</g>
<path d="M107.44 30.24C106.333 30.24 105.307 30.06 104.36 29.7C103.427 29.34 102.613 28.8333 101.92 28.18C101.24 27.5267 100.707 26.76 100.32 25.88C99.9467 25 99.76 24.04 99.76 23C99.76 21.96 99.9467 21 100.32 20.12C100.707 19.24 101.247 18.4733 101.94 17.82C102.633 17.1667 103.447 16.66 104.38 16.3C105.313 15.94 106.327 15.76 107.42 15.76C108.527 15.76 109.54 15.94 110.46 16.3C111.393 16.66 112.2 17.1667 112.88 17.82C113.573 18.4733 114.113 19.24 114.5 20.12C114.887 20.9867 115.08 21.9467 115.08 23C115.08 24.04 114.887 25.0067 114.5 25.9C114.113 26.78 113.573 27.5467 112.88 28.2C112.2 28.84 111.393 29.34 110.46 29.7C109.54 30.06 108.533 30.24 107.44 30.24ZM107.42 27.48C108.047 27.48 108.62 27.3733 109.14 27.16C109.673 26.9467 110.14 26.64 110.54 26.24C110.94 25.84 111.247 25.3667 111.46 24.82C111.687 24.2733 111.8 23.6667 111.8 23C111.8 22.3333 111.687 21.7267 111.46 21.18C111.247 20.6333 110.94 20.16 110.54 19.76C110.153 19.36 109.693 19.0533 109.16 18.84C108.627 18.6267 108.047 18.52 107.42 18.52C106.793 18.52 106.213 18.6267 105.68 18.84C105.16 19.0533 104.7 19.36 104.3 19.76C103.9 20.16 103.587 20.6333 103.36 21.18C103.147 21.7267 103.04 22.3333 103.04 23C103.04 23.6533 103.147 24.26 103.36 24.82C103.587 25.3667 103.893 25.84 104.28 26.24C104.68 26.64 105.147 26.9467 105.68 27.16C106.213 27.3733 106.793 27.48 107.42 27.48ZM117.336 30V19.24H120.436V23.44H125.116V19.24H128.236V30H125.116V25.98H120.436V30H117.336ZM131.223 30V19.24H134.323V25.64L139.563 19.24H142.423V30H139.323V23.6L134.103 30H131.223ZM154.726 30.2C155.739 30.2 156.646 30.0667 157.446 29.8C158.259 29.52 158.899 29.1267 159.366 28.62C159.846 28.1 160.086 27.4933 160.086 26.8C160.086 25.9867 159.746 25.3467 159.066 24.88C158.386 24.4 157.453 24.16 156.266 24.16L156.186 24.78C156.866 24.78 157.479 24.6667 158.026 24.44C158.573 24.2 158.999 23.8733 159.306 23.46C159.626 23.0467 159.786 22.58 159.786 22.06C159.786 21.4067 159.553 20.8533 159.086 20.4C158.633 19.9467 158.006 19.6 157.206 19.36C156.406 19.12 155.506 19.0133 154.506 19.04C153.826 19.0533 153.139 19.1467 152.446 19.32C151.753 19.4933 151.053 19.7267 150.346 20.02L151.106 22.18C151.706 21.94 152.293 21.76 152.866 21.64C153.439 21.5067 153.993 21.44 154.526 21.44C154.993 21.44 155.379 21.4867 155.686 21.58C155.993 21.66 156.226 21.78 156.386 21.94C156.546 22.1 156.626 22.2933 156.626 22.52C156.626 22.7333 156.559 22.92 156.426 23.08C156.306 23.2267 156.119 23.34 155.866 23.42C155.613 23.5 155.306 23.54 154.946 23.54H153.006V25.48H155.206C155.766 25.48 156.193 25.5733 156.486 25.76C156.779 25.9333 156.926 26.1933 156.926 26.54C156.926 26.8067 156.833 27.0333 156.646 27.22C156.459 27.4067 156.186 27.5533 155.826 27.66C155.479 27.7533 155.066 27.8 154.586 27.8C153.919 27.8 153.259 27.7333 152.606 27.6C151.966 27.4533 151.373 27.2467 150.826 26.98L149.986 29.16C150.679 29.5067 151.433 29.7667 152.246 29.94C153.073 30.1133 153.899 30.2 154.726 30.2ZM169.716 28.6V21.8H166.196L166.136 23.18C166.11 23.7533 166.076 24.3 166.036 24.82C165.996 25.34 165.916 25.8133 165.796 26.24C165.69 26.6533 165.53 27.0067 165.316 27.3C165.103 27.58 164.816 27.7733 164.456 27.88L161.376 27.44C161.763 27.44 162.076 27.3267 162.316 27.1C162.556 26.86 162.743 26.5333 162.876 26.12C163.01 25.6933 163.11 25.2133 163.176 24.68C163.243 24.1333 163.29 23.56 163.316 22.96L163.456 19.24H172.836V28.6H169.716ZM161.016 32.32V27.44H174.376V32.32H171.476V30H163.916V32.32H161.016ZM181.38 30.16C180.233 30.16 179.213 29.92 178.32 29.44C177.44 28.96 176.74 28.3067 176.22 27.48C175.713 26.64 175.46 25.6867 175.46 24.62C175.46 23.54 175.713 22.5867 176.22 21.76C176.74 20.92 177.44 20.2667 178.32 19.8C179.213 19.32 180.233 19.08 181.38 19.08C182.513 19.08 183.527 19.32 184.42 19.8C185.313 20.2667 186.013 20.9133 186.52 21.74C187.027 22.5667 187.28 23.5267 187.28 24.62C187.28 25.6867 187.027 26.64 186.52 27.48C186.013 28.3067 185.313 28.96 184.42 29.44C183.527 29.92 182.513 30.16 181.38 30.16ZM181.38 27.6C181.9 27.6 182.367 27.48 182.78 27.24C183.193 27 183.52 26.66 183.76 26.22C184 25.7667 184.12 25.2333 184.12 24.62C184.12 23.9933 184 23.46 183.76 23.02C183.52 22.58 183.193 22.24 182.78 22C182.367 21.76 181.9 21.64 181.38 21.64C180.86 21.64 180.393 21.76 179.98 22C179.567 22.24 179.233 22.58 178.98 23.02C178.74 23.46 178.62 23.9933 178.62 24.62C178.62 25.2333 178.74 25.7667 178.98 26.22C179.233 26.66 179.567 27 179.98 27.24C180.393 27.48 180.86 27.6 181.38 27.6ZM195.766 30.16C194.859 30.16 194.066 29.96 193.386 29.56C192.706 29.16 192.172 28.5533 191.786 27.74C191.412 26.9133 191.226 25.8733 191.226 24.62C191.226 23.3533 191.406 22.3133 191.766 21.5C192.126 20.6867 192.646 20.08 193.326 19.68C194.006 19.28 194.819 19.08 195.766 19.08C196.779 19.08 197.686 19.3133 198.486 19.78C199.299 20.2333 199.939 20.8733 200.406 21.7C200.886 22.5267 201.126 23.5 201.126 24.62C201.126 25.7533 200.886 26.7333 200.406 27.56C199.939 28.3867 199.299 29.0267 198.486 29.48C197.686 29.9333 196.779 30.16 195.766 30.16ZM189.406 33.88V19.24H192.386V21.44L192.326 24.64L192.526 27.82V33.88H189.406ZM195.226 27.6C195.746 27.6 196.206 27.48 196.606 27.24C197.019 27 197.346 26.66 197.586 26.22C197.839 25.7667 197.966 25.2333 197.966 24.62C197.966 23.9933 197.839 23.46 197.586 23.02C197.346 22.58 197.019 22.24 196.606 22C196.206 21.76 195.746 21.64 195.226 21.64C194.706 21.64 194.239 21.76 193.826 22C193.412 22.24 193.086 22.58 192.846 23.02C192.606 23.46 192.486 23.9933 192.486 24.62C192.486 25.2333 192.606 25.7667 192.846 26.22C193.086 26.66 193.412 27 193.826 27.24C194.239 27.48 194.706 27.6 195.226 27.6ZM208.353 30.16C207.206 30.16 206.186 29.92 205.293 29.44C204.413 28.96 203.713 28.3067 203.193 27.48C202.686 26.64 202.433 25.6867 202.433 24.62C202.433 23.54 202.686 22.5867 203.193 21.76C203.713 20.92 204.413 20.2667 205.293 19.8C206.186 19.32 207.206 19.08 208.353 19.08C209.486 19.08 210.499 19.32 211.393 19.8C212.286 20.2667 212.986 20.9133 213.493 21.74C213.999 22.5667 214.253 23.5267 214.253 24.62C214.253 25.6867 213.999 26.64 213.493 27.48C212.986 28.3067 212.286 28.96 211.393 29.44C210.499 29.92 209.486 30.16 208.353 30.16ZM208.353 27.6C208.873 27.6 209.339 27.48 209.753 27.24C210.166 27 210.493 26.66 210.733 26.22C210.973 25.7667 211.093 25.2333 211.093 24.62C211.093 23.9933 210.973 23.46 210.733 23.02C210.493 22.58 210.166 22.24 209.753 22C209.339 21.76 208.873 21.64 208.353 21.64C207.833 21.64 207.366 21.76 206.952 22C206.539 22.24 206.206 22.58 205.953 23.02C205.713 23.46 205.593 23.9933 205.593 24.62C205.593 25.2333 205.713 25.7667 205.953 26.22C206.206 26.66 206.539 27 206.952 27.24C207.366 27.48 207.833 27.6 208.353 27.6ZM216.398 30V19.24H221.898C223.245 19.24 224.298 19.4867 225.058 19.98C225.818 20.46 226.198 21.14 226.198 22.02C226.198 22.9 225.838 23.5933 225.118 24.1C224.412 24.5933 223.472 24.84 222.298 24.84L222.618 24.12C223.925 24.12 224.898 24.36 225.538 24.84C226.192 25.32 226.518 26.02 226.518 26.94C226.518 27.8867 226.158 28.6333 225.438 29.18C224.718 29.7267 223.618 30 222.138 30H216.398ZM219.258 27.88H221.878C222.452 27.88 222.878 27.7867 223.158 27.6C223.452 27.4 223.598 27.1 223.598 26.7C223.598 26.2867 223.465 25.9867 223.198 25.8C222.932 25.6 222.512 25.5 221.938 25.5H219.258V27.88ZM219.258 23.66H221.618C222.165 23.66 222.572 23.56 222.838 23.36C223.118 23.16 223.258 22.8733 223.258 22.5C223.258 22.1133 223.118 21.8267 222.838 21.64C222.572 21.4533 222.165 21.36 221.618 21.36H219.258V23.66ZM239.92 30V19.24H243.02V30H239.92ZM234.5 22.68C235.913 22.6933 236.973 23.0133 237.68 23.64C238.4 24.2533 238.76 25.1267 238.76 26.26C238.76 27.4467 238.353 28.3733 237.54 29.04C236.727 29.6933 235.573 30.02 234.08 30.02L228.84 30V19.24H231.94V22.68H234.5ZM233.8 27.8C234.4 27.8133 234.86 27.6867 235.18 27.42C235.5 27.1533 235.66 26.7533 235.66 26.22C235.66 25.6867 235.5 25.3067 235.18 25.08C234.86 24.84 234.4 24.7133 233.8 24.7L231.94 24.68V27.8H233.8Z" fill="black"/>
<path d="M100.652 54V44.2H101.506L105.986 51.844H105.538L109.976 44.2H110.83V54H109.836V45.754H110.074L105.986 52.754H105.496L101.38 45.754H101.646V54H100.652ZM121.062 54V46.65H122.056V54H121.062ZM116.988 49.24C117.912 49.2493 118.617 49.4547 119.102 49.856C119.588 50.2573 119.83 50.836 119.83 51.592C119.83 52.376 119.569 52.978 119.046 53.398C118.524 53.818 117.777 54.0233 116.806 54.014L113.894 54V46.65H114.888V49.212L116.988 49.24ZM116.736 53.258C117.427 53.2673 117.945 53.132 118.29 52.852C118.645 52.5627 118.822 52.1427 118.822 51.592C118.822 51.0413 118.65 50.64 118.304 50.388C117.959 50.1267 117.436 49.9913 116.736 49.982L114.888 49.954V53.23L116.736 53.258ZM130.525 54.084C131.131 54.084 131.677 53.9907 132.163 53.804C132.657 53.6173 133.049 53.3607 133.339 53.034C133.628 52.698 133.773 52.3107 133.773 51.872C133.773 51.312 133.535 50.8687 133.059 50.542C132.592 50.2153 131.939 50.052 131.099 50.052L131.057 50.318C131.533 50.318 131.957 50.2433 132.331 50.094C132.704 49.9447 133.003 49.7347 133.227 49.464C133.451 49.1933 133.563 48.876 133.563 48.512C133.563 48.1013 133.423 47.7513 133.143 47.462C132.863 47.1633 132.485 46.9347 132.009 46.776C131.542 46.6173 131.015 46.5473 130.427 46.566C129.997 46.566 129.568 46.6267 129.139 46.748C128.719 46.86 128.294 47.028 127.865 47.252L128.145 48.022C128.527 47.826 128.915 47.6813 129.307 47.588C129.699 47.4853 130.077 47.4293 130.441 47.42C130.842 47.42 131.201 47.4667 131.519 47.56C131.836 47.6533 132.083 47.7933 132.261 47.98C132.447 48.1667 132.541 48.3907 132.541 48.652C132.541 48.8947 132.461 49.1047 132.303 49.282C132.153 49.4593 131.939 49.5947 131.659 49.688C131.379 49.7813 131.057 49.828 130.693 49.828H129.503V50.556H130.763C131.379 50.556 131.864 50.668 132.219 50.892C132.573 51.1067 132.751 51.41 132.751 51.802C132.751 52.0727 132.657 52.3153 132.471 52.53C132.284 52.7447 132.023 52.9127 131.687 53.034C131.351 53.1553 130.954 53.2207 130.497 53.23C130.039 53.23 129.577 53.1647 129.111 53.034C128.644 52.894 128.233 52.6933 127.879 52.432L127.557 53.174C127.958 53.482 128.42 53.7107 128.943 53.86C129.465 54.0093 129.993 54.084 130.525 54.084ZM140.593 54V52.376L140.551 52.11V49.394C140.551 48.7687 140.374 48.288 140.019 47.952C139.674 47.616 139.156 47.448 138.465 47.448C137.989 47.448 137.537 47.5273 137.107 47.686C136.678 47.8447 136.314 48.0547 136.015 48.316L135.567 47.574C135.941 47.2567 136.389 47.014 136.911 46.846C137.434 46.6687 137.985 46.58 138.563 46.58C139.515 46.58 140.248 46.818 140.761 47.294C141.284 47.7607 141.545 48.4747 141.545 49.436V54H140.593ZM138.059 54.07C137.509 54.07 137.028 53.9813 136.617 53.804C136.216 53.6173 135.908 53.3653 135.693 53.048C135.479 52.7213 135.371 52.348 135.371 51.928C135.371 51.5453 135.46 51.2 135.637 50.892C135.824 50.5747 136.123 50.3227 136.533 50.136C136.953 49.94 137.513 49.842 138.213 49.842H140.747V50.584H138.241C137.532 50.584 137.037 50.71 136.757 50.962C136.487 51.214 136.351 51.5267 136.351 51.9C136.351 52.32 136.515 52.656 136.841 52.908C137.168 53.16 137.625 53.286 138.213 53.286C138.773 53.286 139.254 53.16 139.655 52.908C140.066 52.6467 140.365 52.2733 140.551 51.788L140.775 52.474C140.589 52.9593 140.262 53.3467 139.795 53.636C139.338 53.9253 138.759 54.07 138.059 54.07ZM147.495 54.084C146.898 54.084 146.366 53.986 145.899 53.79C145.442 53.594 145.05 53.2953 144.723 52.894C144.397 52.4927 144.149 51.998 143.981 51.41C143.813 50.8127 143.729 50.122 143.729 49.338C143.729 48.638 143.795 48.0267 143.925 47.504C144.056 46.972 144.238 46.5147 144.471 46.132C144.705 45.7493 144.975 45.4273 145.283 45.166C145.601 44.8953 145.941 44.6807 146.305 44.522C146.679 44.354 147.061 44.228 147.453 44.144L150.757 43.374L150.925 44.298L147.817 44.998C147.621 45.0447 147.383 45.11 147.103 45.194C146.833 45.278 146.553 45.404 146.263 45.572C145.983 45.74 145.722 45.9733 145.479 46.272C145.237 46.5707 145.041 46.958 144.891 47.434C144.751 47.9007 144.681 48.484 144.681 49.184C144.681 49.3333 144.686 49.4547 144.695 49.548C144.705 49.632 144.714 49.7253 144.723 49.828C144.742 49.9213 144.756 50.0613 144.765 50.248L144.331 49.884C144.434 49.3147 144.644 48.82 144.961 48.4C145.279 47.9707 145.675 47.6393 146.151 47.406C146.637 47.1633 147.173 47.042 147.761 47.042C148.443 47.042 149.049 47.1913 149.581 47.49C150.113 47.7793 150.529 48.1853 150.827 48.708C151.135 49.2307 151.289 49.8373 151.289 50.528C151.289 51.2093 151.131 51.8207 150.813 52.362C150.505 52.9033 150.067 53.328 149.497 53.636C148.928 53.9347 148.261 54.084 147.495 54.084ZM147.607 53.258C148.13 53.258 148.592 53.1413 148.993 52.908C149.395 52.6653 149.707 52.3387 149.931 51.928C150.165 51.5173 150.281 51.0553 150.281 50.542C150.281 50.038 150.165 49.59 149.931 49.198C149.707 48.806 149.395 48.498 148.993 48.274C148.592 48.0407 148.125 47.924 147.593 47.924C147.071 47.924 146.609 48.036 146.207 48.26C145.806 48.4747 145.489 48.778 145.255 49.17C145.031 49.562 144.919 50.0147 144.919 50.528C144.919 51.0413 145.031 51.5033 145.255 51.914C145.489 52.3247 145.806 52.6513 146.207 52.894C146.618 53.1367 147.085 53.258 147.607 53.258ZM156.444 54.07C155.735 54.07 155.095 53.9113 154.526 53.594C153.966 53.2673 153.523 52.824 153.196 52.264C152.869 51.6947 152.706 51.046 152.706 50.318C152.706 49.5807 152.869 48.932 153.196 48.372C153.523 47.812 153.966 47.3733 154.526 47.056C155.086 46.7387 155.725 46.58 156.444 46.58C157.172 46.58 157.816 46.7387 158.376 47.056C158.945 47.3733 159.389 47.812 159.706 48.372C160.033 48.932 160.196 49.5807 160.196 50.318C160.196 51.046 160.033 51.6947 159.706 52.264C159.389 52.824 158.945 53.2673 158.376 53.594C157.807 53.9113 157.163 54.07 156.444 54.07ZM156.444 53.188C156.976 53.188 157.447 53.0713 157.858 52.838C158.269 52.5953 158.591 52.2593 158.824 51.83C159.067 51.3913 159.188 50.8873 159.188 50.318C159.188 49.7393 159.067 49.2353 158.824 48.806C158.591 48.3767 158.269 48.0453 157.858 47.812C157.447 47.5693 156.981 47.448 156.458 47.448C155.935 47.448 155.469 47.5693 155.058 47.812C154.647 48.0453 154.321 48.3767 154.078 48.806C153.835 49.2353 153.714 49.7393 153.714 50.318C153.714 50.8873 153.835 51.3913 154.078 51.83C154.321 52.2593 154.647 52.5953 155.058 52.838C155.469 53.0713 155.931 53.188 156.444 53.188ZM163.447 54V47.252L163.699 47.518H160.661V46.65H167.227V47.518H164.189L164.441 47.252V54H163.447ZM168.664 54V46.65H169.658V52.488L174.572 46.65H175.454V54H174.46V48.148L169.56 54H168.664ZM178.303 54V46.65H179.311L182.643 52.292H182.223L185.611 46.65H186.535V54H185.625V47.784L185.807 47.868L182.643 53.104H182.195L179.003 47.812L179.213 47.77V54H178.303ZM192.443 54.07C191.715 54.07 191.062 53.9113 190.483 53.594C189.914 53.2673 189.466 52.824 189.139 52.264C188.813 51.6947 188.649 51.046 188.649 50.318C188.649 49.5807 188.813 48.932 189.139 48.372C189.466 47.812 189.914 47.3733 190.483 47.056C191.062 46.7387 191.715 46.58 192.443 46.58C193.069 46.58 193.633 46.7013 194.137 46.944C194.641 47.1867 195.038 47.5507 195.327 48.036L194.585 48.54C194.333 48.1667 194.021 47.8913 193.647 47.714C193.274 47.5367 192.868 47.448 192.429 47.448C191.907 47.448 191.435 47.5693 191.015 47.812C190.595 48.0453 190.264 48.3767 190.021 48.806C189.779 49.2353 189.657 49.7393 189.657 50.318C189.657 50.8967 189.779 51.4007 190.021 51.83C190.264 52.2593 190.595 52.5953 191.015 52.838C191.435 53.0713 191.907 53.188 192.429 53.188C192.868 53.188 193.274 53.0993 193.647 52.922C194.021 52.7447 194.333 52.474 194.585 52.11L195.327 52.614C195.038 53.09 194.641 53.454 194.137 53.706C193.633 53.9487 193.069 54.07 192.443 54.07ZM201.752 54V51.354L201.934 51.564H199.442C198.499 51.564 197.762 51.3587 197.23 50.948C196.698 50.5373 196.432 49.94 196.432 49.156C196.432 48.316 196.716 47.6907 197.286 47.28C197.855 46.86 198.616 46.65 199.568 46.65H202.662V54H201.752ZM196.376 54L198.392 51.172H199.428L197.454 54H196.376ZM201.752 51.06V47.224L201.934 47.518H199.596C198.914 47.518 198.382 47.6487 198 47.91C197.626 48.1713 197.44 48.596 197.44 49.184C197.44 50.276 198.135 50.822 199.526 50.822H201.934L201.752 51.06ZM212.184 54.07C211.475 54.07 210.835 53.9113 210.266 53.594C209.706 53.2673 209.263 52.824 208.936 52.264C208.609 51.6947 208.446 51.046 208.446 50.318C208.446 49.5807 208.609 48.932 208.936 48.372C209.263 47.812 209.706 47.3733 210.266 47.056C210.826 46.7387 211.465 46.58 212.184 46.58C212.912 46.58 213.556 46.7387 214.116 47.056C214.685 47.3733 215.129 47.812 215.446 48.372C215.773 48.932 215.936 49.5807 215.936 50.318C215.936 51.046 215.773 51.6947 215.446 52.264C215.129 52.824 214.685 53.2673 214.116 53.594C213.547 53.9113 212.903 54.07 212.184 54.07ZM212.184 53.188C212.716 53.188 213.187 53.0713 213.598 52.838C214.009 52.5953 214.331 52.2593 214.564 51.83C214.807 51.3913 214.928 50.8873 214.928 50.318C214.928 49.7393 214.807 49.2353 214.564 48.806C214.331 48.3767 214.009 48.0453 213.598 47.812C213.187 47.5693 212.721 47.448 212.198 47.448C211.675 47.448 211.209 47.5693 210.798 47.812C210.387 48.0453 210.061 48.3767 209.818 48.806C209.575 49.2353 209.454 49.7393 209.454 50.318C209.454 50.8873 209.575 51.3913 209.818 51.83C210.061 52.2593 210.387 52.5953 210.798 52.838C211.209 53.0713 211.671 53.188 212.184 53.188ZM227.115 54L224.091 50.36L224.917 49.87L228.291 54H227.115ZM221.725 54V46.65H222.719V54H221.725ZM222.411 50.724V49.87H224.777V50.724H222.411ZM225.001 50.43L224.077 50.29L227.003 46.65H228.081L225.001 50.43ZM234.287 54V52.376L234.245 52.11V49.394C234.245 48.7687 234.067 48.288 233.713 47.952C233.367 47.616 232.849 47.448 232.159 47.448C231.683 47.448 231.23 47.5273 230.801 47.686C230.371 47.8447 230.007 48.0547 229.709 48.316L229.261 47.574C229.634 47.2567 230.082 47.014 230.605 46.846C231.127 46.6687 231.678 46.58 232.257 46.58C233.209 46.58 233.941 46.818 234.455 47.294C234.977 47.7607 235.239 48.4747 235.239 49.436V54H234.287ZM231.753 54.07C231.202 54.07 230.721 53.9813 230.311 53.804C229.909 53.6173 229.601 53.3653 229.387 53.048C229.172 52.7213 229.065 52.348 229.065 51.928C229.065 51.5453 229.153 51.2 229.331 50.892C229.517 50.5747 229.816 50.3227 230.227 50.136C230.647 49.94 231.207 49.842 231.907 49.842H234.441V50.584H231.935C231.225 50.584 230.731 50.71 230.451 50.962C230.18 51.214 230.045 51.5267 230.045 51.9C230.045 52.32 230.208 52.656 230.535 52.908C230.861 53.16 231.319 53.286 231.907 53.286C232.467 53.286 232.947 53.16 233.349 52.908C233.759 52.6467 234.058 52.2733 234.245 51.788L234.469 52.474C234.282 52.9593 233.955 53.3467 233.489 53.636C233.031 53.9253 232.453 54.07 231.753 54.07ZM246.607 54L244.087 50.36L244.913 49.87L247.797 54H246.607ZM242.435 50.724V49.87H244.759V50.724H242.435ZM245.011 50.43L244.059 50.29L246.509 46.65H247.587L245.011 50.43ZM237.899 54H236.709L239.593 49.87L240.405 50.36L237.899 54ZM242.743 54H241.749V46.65H242.743V54ZM242.057 50.724H239.747V49.87H242.057V50.724ZM239.509 50.43L236.919 46.65H237.997L240.433 50.29L239.509 50.43ZM254.491 53.524V47.518H250.949L250.865 49.156C250.846 49.6507 250.814 50.136 250.767 50.612C250.73 51.088 250.66 51.5267 250.557 51.928C250.464 52.32 250.328 52.642 250.151 52.894C249.974 53.1367 249.745 53.2767 249.465 53.314L248.471 53.132C248.76 53.1413 248.998 53.0387 249.185 52.824C249.372 52.6 249.516 52.2967 249.619 51.914C249.722 51.5313 249.796 51.0973 249.843 50.612C249.89 50.1173 249.927 49.6133 249.955 49.1L250.053 46.65H255.485V53.524H254.491ZM248.163 55.778V53.132H256.633V55.778H255.695V54H249.101V55.778H248.163ZM261.594 54.07C260.885 54.07 260.246 53.9113 259.676 53.594C259.116 53.2673 258.673 52.824 258.346 52.264C258.02 51.6947 257.856 51.046 257.856 50.318C257.856 49.5807 258.02 48.932 258.346 48.372C258.673 47.812 259.116 47.3733 259.676 47.056C260.236 46.7387 260.876 46.58 261.594 46.58C262.322 46.58 262.966 46.7387 263.526 47.056C264.096 47.3733 264.539 47.812 264.856 48.372C265.183 48.932 265.346 49.5807 265.346 50.318C265.346 51.046 265.183 51.6947 264.856 52.264C264.539 52.824 264.096 53.2673 263.526 53.594C262.957 53.9113 262.313 54.07 261.594 54.07ZM261.594 53.188C262.126 53.188 262.598 53.0713 263.008 52.838C263.419 52.5953 263.741 52.2593 263.974 51.83C264.217 51.3913 264.338 50.8873 264.338 50.318C264.338 49.7393 264.217 49.2353 263.974 48.806C263.741 48.3767 263.419 48.0453 263.008 47.812C262.598 47.5693 262.131 47.448 261.608 47.448C261.086 47.448 260.619 47.5693 260.208 47.812C259.798 48.0453 259.471 48.3767 259.228 48.806C258.986 49.2353 258.864 49.7393 258.864 50.318C258.864 50.8873 258.986 51.3913 259.228 51.83C259.471 52.2593 259.798 52.5953 260.208 52.838C260.619 53.0713 261.081 53.188 261.594 53.188ZM267.471 54V46.65H268.479L271.811 52.292H271.391L274.779 46.65H275.703V54H274.793V47.784L274.975 47.868L271.811 53.104H271.363L268.171 47.812L268.381 47.77V54H267.471ZM100.414 70V62.65H107.022V70H106.028V63.252L106.28 63.518H101.156L101.408 63.252V70H100.414ZM109.848 70V62.65H110.842V68.488L115.756 62.65H116.638V70H115.644V64.148L110.744 70H109.848ZM120.886 70V63.252L121.138 63.518H118.1V62.65H124.666V63.518H121.628L121.88 63.252V70H120.886ZM128.786 70.07C128.076 70.07 127.437 69.9113 126.868 69.594C126.308 69.2673 125.864 68.824 125.538 68.264C125.211 67.6947 125.048 67.046 125.048 66.318C125.048 65.5807 125.211 64.932 125.538 64.372C125.864 63.812 126.308 63.3733 126.868 63.056C127.428 62.7387 128.067 62.58 128.786 62.58C129.514 62.58 130.158 62.7387 130.718 63.056C131.287 63.3733 131.73 63.812 132.048 64.372C132.374 64.932 132.538 65.5807 132.538 66.318C132.538 67.046 132.374 67.6947 132.048 68.264C131.73 68.824 131.287 69.2673 130.718 69.594C130.148 69.9113 129.504 70.07 128.786 70.07ZM128.786 69.188C129.318 69.188 129.789 69.0713 130.2 68.838C130.61 68.5953 130.932 68.2593 131.166 67.83C131.408 67.3913 131.53 66.8873 131.53 66.318C131.53 65.7393 131.408 65.2353 131.166 64.806C130.932 64.3767 130.61 64.0453 130.2 63.812C129.789 63.5693 129.322 63.448 128.8 63.448C128.277 63.448 127.81 63.5693 127.4 63.812C126.989 64.0453 126.662 64.3767 126.42 64.806C126.177 65.2353 126.056 65.7393 126.056 66.318C126.056 66.8873 126.177 67.3913 126.42 67.83C126.662 68.2593 126.989 68.5953 127.4 68.838C127.81 69.0713 128.272 69.188 128.786 69.188ZM134.662 70V62.65H135.67L139.002 68.292H138.582L141.97 62.65H142.894V70H141.984V63.784L142.166 63.868L139.002 69.104H138.554L135.362 63.812L135.572 63.77V70H134.662ZM145.723 70V62.65H146.717V69.132H151.211V62.65H152.205V70H145.723ZM152.457 71.778V69.916L152.709 70H151.211V69.132H153.395V71.778H152.457ZM158.443 70.07C157.678 70.07 157.006 69.9113 156.427 69.594C155.848 69.2673 155.396 68.824 155.069 68.264C154.742 67.6947 154.579 67.046 154.579 66.318C154.579 65.59 154.733 64.946 155.041 64.386C155.358 63.826 155.788 63.3873 156.329 63.07C156.88 62.7433 157.496 62.58 158.177 62.58C158.868 62.58 159.479 62.7387 160.011 63.056C160.552 63.364 160.977 63.8027 161.285 64.372C161.593 64.932 161.747 65.5807 161.747 66.318C161.747 66.3647 161.742 66.416 161.733 66.472C161.733 66.5187 161.733 66.57 161.733 66.626H155.335V65.884H161.201L160.809 66.178C160.809 65.646 160.692 65.1747 160.459 64.764C160.235 64.344 159.927 64.0173 159.535 63.784C159.143 63.5507 158.69 63.434 158.177 63.434C157.673 63.434 157.22 63.5507 156.819 63.784C156.418 64.0173 156.105 64.344 155.881 64.764C155.657 65.184 155.545 65.6647 155.545 66.206V66.36C155.545 66.92 155.666 67.4147 155.909 67.844C156.161 68.264 156.506 68.5953 156.945 68.838C157.393 69.0713 157.902 69.188 158.471 69.188C158.919 69.188 159.334 69.1087 159.717 68.95C160.109 68.7913 160.445 68.5487 160.725 68.222L161.285 68.866C160.958 69.258 160.548 69.5567 160.053 69.762C159.568 69.9673 159.031 70.07 158.443 70.07ZM170.691 70.07C169.963 70.07 169.31 69.9113 168.731 69.594C168.162 69.2673 167.714 68.824 167.387 68.264C167.061 67.6947 166.897 67.046 166.897 66.318C166.897 65.5807 167.061 64.932 167.387 64.372C167.714 63.812 168.162 63.3733 168.731 63.056C169.31 62.7387 169.963 62.58 170.691 62.58C171.317 62.58 171.881 62.7013 172.385 62.944C172.889 63.1867 173.286 63.5507 173.575 64.036L172.833 64.54C172.581 64.1667 172.269 63.8913 171.895 63.714C171.522 63.5367 171.116 63.448 170.677 63.448C170.155 63.448 169.683 63.5693 169.263 63.812C168.843 64.0453 168.512 64.3767 168.269 64.806C168.027 65.2353 167.905 65.7393 167.905 66.318C167.905 66.8967 168.027 67.4007 168.269 67.83C168.512 68.2593 168.843 68.5953 169.263 68.838C169.683 69.0713 170.155 69.188 170.677 69.188C171.116 69.188 171.522 69.0993 171.895 68.922C172.269 68.7447 172.581 68.474 172.833 68.11L173.575 68.614C173.286 69.09 172.889 69.454 172.385 69.706C171.881 69.9487 171.317 70.07 170.691 70.07ZM182.188 70.07C181.479 70.07 180.839 69.9113 180.27 69.594C179.71 69.2673 179.267 68.824 178.94 68.264C178.613 67.6947 178.45 67.046 178.45 66.318C178.45 65.5807 178.613 64.932 178.94 64.372C179.267 63.812 179.71 63.3733 180.27 63.056C180.83 62.7387 181.469 62.58 182.188 62.58C182.916 62.58 183.56 62.7387 184.12 63.056C184.689 63.3733 185.133 63.812 185.45 64.372C185.777 64.932 185.94 65.5807 185.94 66.318C185.94 67.046 185.777 67.6947 185.45 68.264C185.133 68.824 184.689 69.2673 184.12 69.594C183.551 69.9113 182.907 70.07 182.188 70.07ZM182.188 69.188C182.72 69.188 183.191 69.0713 183.602 68.838C184.013 68.5953 184.335 68.2593 184.568 67.83C184.811 67.3913 184.932 66.8873 184.932 66.318C184.932 65.7393 184.811 65.2353 184.568 64.806C184.335 64.3767 184.013 64.0453 183.602 63.812C183.191 63.5693 182.725 63.448 182.202 63.448C181.679 63.448 181.213 63.5693 180.802 63.812C180.391 64.0453 180.065 64.3767 179.822 64.806C179.579 65.2353 179.458 65.7393 179.458 66.318C179.458 66.8873 179.579 67.3913 179.822 67.83C180.065 68.2593 180.391 68.5953 180.802 68.838C181.213 69.0713 181.675 69.188 182.188 69.188ZM191.144 70.07C190.416 70.07 189.763 69.9113 189.184 69.594C188.615 69.2673 188.167 68.824 187.84 68.264C187.514 67.6947 187.35 67.046 187.35 66.318C187.35 65.5807 187.514 64.932 187.84 64.372C188.167 63.812 188.615 63.3733 189.184 63.056C189.763 62.7387 190.416 62.58 191.144 62.58C191.77 62.58 192.334 62.7013 192.838 62.944C193.342 63.1867 193.739 63.5507 194.028 64.036L193.286 64.54C193.034 64.1667 192.722 63.8913 192.348 63.714C191.975 63.5367 191.569 63.448 191.13 63.448C190.608 63.448 190.136 63.5693 189.716 63.812C189.296 64.0453 188.965 64.3767 188.722 64.806C188.48 65.2353 188.358 65.7393 188.358 66.318C188.358 66.8967 188.48 67.4007 188.722 67.83C188.965 68.2593 189.296 68.5953 189.716 68.838C190.136 69.0713 190.608 69.188 191.13 69.188C191.569 69.188 191.975 69.0993 192.348 68.922C192.722 68.7447 193.034 68.474 193.286 68.11L194.028 68.614C193.739 69.09 193.342 69.454 192.838 69.706C192.334 69.9487 191.77 70.07 191.144 70.07ZM198.854 70.07C198.145 70.07 197.505 69.9113 196.936 69.594C196.376 69.2673 195.933 68.824 195.606 68.264C195.279 67.6947 195.116 67.046 195.116 66.318C195.116 65.5807 195.279 64.932 195.606 64.372C195.933 63.812 196.376 63.3733 196.936 63.056C197.496 62.7387 198.135 62.58 198.854 62.58C199.582 62.58 200.226 62.7387 200.786 63.056C201.355 63.3733 201.799 63.812 202.116 64.372C202.443 64.932 202.606 65.5807 202.606 66.318C202.606 67.046 202.443 67.6947 202.116 68.264C201.799 68.824 201.355 69.2673 200.786 69.594C200.217 69.9113 199.573 70.07 198.854 70.07ZM198.854 69.188C199.386 69.188 199.857 69.0713 200.268 68.838C200.679 68.5953 201.001 68.2593 201.234 67.83C201.477 67.3913 201.598 66.8873 201.598 66.318C201.598 65.7393 201.477 65.2353 201.234 64.806C201.001 64.3767 200.679 64.0453 200.268 63.812C199.857 63.5693 199.391 63.448 198.868 63.448C198.345 63.448 197.879 63.5693 197.468 63.812C197.057 64.0453 196.731 64.3767 196.488 64.806C196.245 65.2353 196.124 65.7393 196.124 66.318C196.124 66.8873 196.245 67.3913 196.488 67.83C196.731 68.2593 197.057 68.5953 197.468 68.838C197.879 69.0713 198.341 69.188 198.854 69.188ZM208.034 70.084C207.437 70.084 206.905 69.986 206.438 69.79C205.981 69.594 205.589 69.2953 205.262 68.894C204.936 68.4927 204.688 67.998 204.52 67.41C204.352 66.8127 204.268 66.122 204.268 65.338C204.268 64.638 204.334 64.0267 204.464 63.504C204.595 62.972 204.777 62.5147 205.01 62.132C205.244 61.7493 205.514 61.4273 205.822 61.166C206.14 60.8953 206.48 60.6807 206.844 60.522C207.218 60.354 207.6 60.228 207.992 60.144L211.296 59.374L211.464 60.298L208.356 60.998C208.16 61.0447 207.922 61.11 207.642 61.194C207.372 61.278 207.092 61.404 206.802 61.572C206.522 61.74 206.261 61.9733 206.018 62.272C205.776 62.5707 205.58 62.958 205.43 63.434C205.29 63.9007 205.22 64.484 205.22 65.184C205.22 65.3333 205.225 65.4547 205.234 65.548C205.244 65.632 205.253 65.7253 205.262 65.828C205.281 65.9213 205.295 66.0613 205.304 66.248L204.87 65.884C204.973 65.3147 205.183 64.82 205.5 64.4C205.818 63.9707 206.214 63.6393 206.69 63.406C207.176 63.1633 207.712 63.042 208.3 63.042C208.982 63.042 209.588 63.1913 210.12 63.49C210.652 63.7793 211.068 64.1853 211.366 64.708C211.674 65.2307 211.828 65.8373 211.828 66.528C211.828 67.2093 211.67 67.8207 211.352 68.362C211.044 68.9033 210.606 69.328 210.036 69.636C209.467 69.9347 208.8 70.084 208.034 70.084ZM208.146 69.258C208.669 69.258 209.131 69.1413 209.532 68.908C209.934 68.6653 210.246 68.3387 210.47 67.928C210.704 67.5173 210.82 67.0553 210.82 66.542C210.82 66.038 210.704 65.59 210.47 65.198C210.246 64.806 209.934 64.498 209.532 64.274C209.131 64.0407 208.664 63.924 208.132 63.924C207.61 63.924 207.148 64.036 206.746 64.26C206.345 64.4747 206.028 64.778 205.794 65.17C205.57 65.562 205.458 66.0147 205.458 66.528C205.458 67.0413 205.57 67.5033 205.794 67.914C206.028 68.3247 206.345 68.6513 206.746 68.894C207.157 69.1367 207.624 69.258 208.146 69.258ZM221.127 70V62.65H222.121V70H221.127ZM217.053 65.24C217.977 65.2493 218.682 65.4547 219.167 65.856C219.652 66.2573 219.895 66.836 219.895 67.592C219.895 68.376 219.634 68.978 219.111 69.398C218.588 69.818 217.842 70.0233 216.871 70.014L213.959 70V62.65H214.953V65.212L217.053 65.24ZM216.801 69.258C217.492 69.2673 218.01 69.132 218.355 68.852C218.71 68.5627 218.887 68.1427 218.887 67.592C218.887 67.0413 218.714 66.64 218.369 66.388C218.024 66.1267 217.501 65.9913 216.801 65.982L214.953 65.954V69.23L216.801 69.258ZM224.951 70V62.65H225.959L229.291 68.292H228.871L232.259 62.65H233.183V70H232.273V63.784L232.455 63.868L229.291 69.104H228.843L225.651 63.812L225.861 63.77V70H224.951ZM239.676 70V62.65H242.924C243.754 62.65 244.408 62.8087 244.884 63.126C245.369 63.4433 245.612 63.91 245.612 64.526C245.612 65.1233 245.383 65.5853 244.926 65.912C244.468 66.2293 243.866 66.388 243.12 66.388L243.316 66.094C244.193 66.094 244.837 66.2573 245.248 66.584C245.658 66.9107 245.864 67.382 245.864 67.998C245.864 68.6327 245.63 69.1273 245.164 69.482C244.706 69.8273 243.992 70 243.022 70H239.676ZM240.642 69.216H242.98C243.605 69.216 244.076 69.118 244.394 68.922C244.72 68.7167 244.884 68.39 244.884 67.942C244.884 67.494 244.739 67.1673 244.45 66.962C244.16 66.7567 243.703 66.654 243.078 66.654H240.642V69.216ZM240.642 65.912H242.854C243.423 65.912 243.857 65.8047 244.156 65.59C244.464 65.3753 244.618 65.0627 244.618 64.652C244.618 64.2413 244.464 63.9333 244.156 63.728C243.857 63.5227 243.423 63.42 242.854 63.42H240.642V65.912ZM248.193 70V62.65H249.187V65.898H253.821V62.65H254.815V70H253.821V66.752H249.187V70H248.193ZM257.641 70V62.65H258.635V68.488L263.549 62.65H264.431V70H263.437V64.148L258.537 70H257.641ZM267.279 70V62.65H268.287L271.619 68.292H271.199L274.587 62.65H275.511V70H274.601V63.784L274.783 63.868L271.619 69.104H271.171L267.979 63.812L268.189 63.77V70H267.279ZM282.904 70V68.376L282.862 68.11V65.394C282.862 64.7687 282.684 64.288 282.33 63.952C281.984 63.616 281.466 63.448 280.776 63.448C280.3 63.448 279.847 63.5273 279.418 63.686C278.988 63.8447 278.624 64.0547 278.326 64.316L277.878 63.574C278.251 63.2567 278.699 63.014 279.222 62.846C279.744 62.6687 280.295 62.58 280.874 62.58C281.826 62.58 282.558 62.818 283.072 63.294C283.594 63.7607 283.856 64.4747 283.856 65.436V70H282.904ZM280.37 70.07C279.819 70.07 279.338 69.9813 278.928 69.804C278.526 69.6173 278.218 69.3653 278.004 69.048C277.789 68.7213 277.682 68.348 277.682 67.928C277.682 67.5453 277.77 67.2 277.948 66.892C278.134 66.5747 278.433 66.3227 278.844 66.136C279.264 65.94 279.824 65.842 280.524 65.842H283.058V66.584H280.552C279.842 66.584 279.348 66.71 279.068 66.962C278.797 67.214 278.662 67.5267 278.662 67.9C278.662 68.32 278.825 68.656 279.152 68.908C279.478 69.16 279.936 69.286 280.524 69.286C281.084 69.286 281.564 69.16 281.966 68.908C282.376 68.6467 282.675 68.2733 282.862 67.788L283.086 68.474C282.899 68.9593 282.572 69.3467 282.106 69.636C281.648 69.9253 281.07 70.07 280.37 70.07ZM286.502 70V62.65H287.496V65.898H292.13V62.65H293.124V70H292.13V66.752H287.496V70H286.502ZM295.949 70V62.65H296.943V68.488L301.857 62.65H302.739V70H301.745V64.148L296.845 70H295.949ZM308.738 70.07C307.972 70.07 307.3 69.9113 306.722 69.594C306.143 69.2673 305.69 68.824 305.364 68.264C305.037 67.6947 304.874 67.046 304.874 66.318C304.874 65.59 305.028 64.946 305.336 64.386C305.653 63.826 306.082 63.3873 306.624 63.07C307.174 62.7433 307.79 62.58 308.472 62.58C309.162 62.58 309.774 62.7387 310.306 63.056C310.847 63.364 311.272 63.8027 311.58 64.372C311.888 64.932 312.042 65.5807 312.042 66.318C312.042 66.3647 312.037 66.416 312.028 66.472C312.028 66.5187 312.028 66.57 312.028 66.626H305.63V65.884H311.496L311.104 66.178C311.104 65.646 310.987 65.1747 310.754 64.764C310.53 64.344 310.222 64.0173 309.83 63.784C309.438 63.5507 308.985 63.434 308.472 63.434C307.968 63.434 307.515 63.5507 307.114 63.784C306.712 64.0173 306.4 64.344 306.176 64.764C305.952 65.184 305.84 65.6647 305.84 66.206V66.36C305.84 66.92 305.961 67.4147 306.204 67.844C306.456 68.264 306.801 68.5953 307.24 68.838C307.688 69.0713 308.196 69.188 308.766 69.188C309.214 69.188 309.629 69.1087 310.012 68.95C310.404 68.7913 310.74 68.5487 311.02 68.222L311.58 68.866C311.253 69.258 310.842 69.5567 310.348 69.762C309.862 69.9673 309.326 70.07 308.738 70.07ZM314.242 70V62.65H315.25L318.582 68.292H318.162L321.55 62.65H322.474V70H321.564V63.784L321.746 63.868L318.582 69.104H318.134L314.942 63.812L315.152 63.77V70H314.242Z" fill="black"/>
<defs>
<filter id="filter0_d_8_143" x="0" y="0" width="84" height="84" filterUnits="userSpaceOnUse" color-interpolation-filters="sRGB">
<feFlood flood-opacity="0" result="BackgroundImageFix"/>
<feColorMatrix in="SourceAlpha" type="matrix" values="0 0 0 0 0 0 0 0 0 0 0 0 0 0 0 0 0 0 127 0" result="hardAlpha"/>
<feOffset/>
<feGaussianBlur stdDeviation="3.5"/>
<feComposite in2="hardAlpha" operator="out"/>
<feColorMatrix type="matrix" values="0 0 0 0 0 0 0 0 0 0 0 0 0 0 0 0 0 0 0.3 0"/>
<feBlend mode="normal" in2="BackgroundImageFix" result="effect1_dropShadow_8_143"/>
<feBlend mode="normal" in="SourceGraphic" in2="effect1_dropShadow_8_143" result="shape"/>
</filter>
</defs>
</svg>
