<svg width="363" height="83" viewBox="0 0 363 83" fill="none" xmlns="http://www.w3.org/2000/svg">
<g filter="url(#filter0_d_8_110)">
<rect x="7" y="7" width="69" height="69" rx="20" fill="#50FF81" shape-rendering="crispEdges"/>
<path d="M42.1091 38.801L51.1875 41.813V54.1001C51.1875 54.3387 51.0854 54.5676 50.9038 54.7364C50.7221 54.9052 50.4757 55 50.2188 55H46.3438C46.0868 55 45.8404 54.9052 45.6587 54.7364C45.4771 54.5676 45.375 54.3387 45.375 54.1001V47.8004H35.6875V54.1001C35.6875 54.3387 35.5854 54.5676 35.4038 54.7364C35.2221 54.9052 34.9757 55 34.7188 55H30.8438C30.5868 55 30.3404 54.9052 30.1587 54.7364C29.9771 54.5676 29.875 54.3387 29.875 54.1001V42.0683C27.6251 41.3231 26 39.3443 26 37.0011C26 36.5237 26.2041 36.0659 26.5675 35.7284C26.9308 35.3908 27.4236 35.2012 27.9375 35.2012C28.4514 35.2012 28.9442 35.3908 29.3075 35.7284C29.6709 36.0659 29.875 36.5237 29.875 37.0011C29.876 37.4782 30.0804 37.9354 30.4435 38.2728C30.8067 38.6102 31.2989 38.8001 31.8125 38.801H42.1091ZM57 32.5013V34.3012C57 35.256 56.5917 36.1716 55.865 36.8467C55.1383 37.5218 54.1527 37.901 53.125 37.901H51.1875V39.9023L43.4375 37.3312V28.9016C43.4375 28.1 44.4801 27.6984 45.091 28.2654L46.7428 29.8015H49.9899C50.6504 29.8015 51.4279 30.247 51.7227 30.7965L52.1562 31.6014H56.0312C56.2882 31.6014 56.5346 31.6962 56.7163 31.865C56.8979 32.0338 57 32.2627 57 32.5013ZM50.2188 32.5013C50.2188 32.3233 50.1619 32.1494 50.0555 32.0014C49.949 31.8534 49.7977 31.738 49.6207 31.6699C49.4437 31.6018 49.2489 31.584 49.061 31.6187C48.8731 31.6534 48.7005 31.7391 48.565 31.865C48.4295 31.9908 48.3372 32.1512 48.2999 32.3258C48.2625 32.5003 48.2817 32.6813 48.355 32.8457C48.4283 33.0102 48.5525 33.1507 48.7118 33.2496C48.8711 33.3485 49.0584 33.4013 49.25 33.4013C49.5069 33.4013 49.7533 33.3065 49.935 33.1377C50.1167 32.9689 50.2188 32.74 50.2188 32.5013Z" fill="white"/>
</g>
<path d="M102.74 30V16H105.96V25.12L112.64 16H115.68V30H112.48V20.9L105.8 30H102.74ZM117.486 30L122.306 23.68L122.246 25.4L117.626 19.24H121.126L124.046 23.26L122.726 23.3L125.746 19.24H129.066L124.426 25.34V23.66L129.226 30H125.686L122.626 25.72L123.926 25.9L120.886 30H117.486ZM136.426 30V19.24H139.686L143.746 26.6H142.446L146.786 19.24H149.706L149.746 30H146.926V22.44L147.406 22.76L143.706 28.96H142.386L138.666 22.54L139.246 22.4V30H136.426ZM152.734 30V19.24H155.834V23.44H160.514V19.24H163.634V30H160.514V25.98H155.834V30H152.734ZM171.661 30.16C170.514 30.16 169.494 29.92 168.601 29.44C167.721 28.96 167.021 28.3067 166.501 27.48C165.994 26.64 165.741 25.6867 165.741 24.62C165.741 23.54 165.994 22.5867 166.501 21.76C167.021 20.92 167.721 20.2667 168.601 19.8C169.494 19.32 170.514 19.08 171.661 19.08C172.794 19.08 173.808 19.32 174.701 19.8C175.594 20.2667 176.294 20.9133 176.801 21.74C177.308 22.5667 177.561 23.5267 177.561 24.62C177.561 25.6867 177.308 26.64 176.801 27.48C176.294 28.3067 175.594 28.96 174.701 29.44C173.808 29.92 172.794 30.16 171.661 30.16ZM171.661 27.6C172.181 27.6 172.648 27.48 173.061 27.24C173.474 27 173.801 26.66 174.041 26.22C174.281 25.7667 174.401 25.2333 174.401 24.62C174.401 23.9933 174.281 23.46 174.041 23.02C173.801 22.58 173.474 22.24 173.061 22C172.648 21.76 172.181 21.64 171.661 21.64C171.141 21.64 170.674 21.76 170.261 22C169.848 22.24 169.514 22.58 169.261 23.02C169.021 23.46 168.901 23.9933 168.901 24.62C168.901 25.2333 169.021 25.7667 169.261 26.22C169.514 26.66 169.848 27 170.261 27.24C170.674 27.48 171.141 27.6 171.661 27.6ZM179.707 30V19.24H188.327V21.8H182.107L182.807 21.12V30H179.707ZM194.571 30.16C193.425 30.16 192.405 29.92 191.511 29.44C190.631 28.96 189.931 28.3067 189.411 27.48C188.905 26.64 188.651 25.6867 188.651 24.62C188.651 23.54 188.905 22.5867 189.411 21.76C189.931 20.92 190.631 20.2667 191.511 19.8C192.405 19.32 193.425 19.08 194.571 19.08C195.705 19.08 196.718 19.32 197.611 19.8C198.505 20.2667 199.205 20.9133 199.711 21.74C200.218 22.5667 200.471 23.5267 200.471 24.62C200.471 25.6867 200.218 26.64 199.711 27.48C199.205 28.3067 198.505 28.96 197.611 29.44C196.718 29.92 195.705 30.16 194.571 30.16ZM194.571 27.6C195.091 27.6 195.558 27.48 195.971 27.24C196.385 27 196.711 26.66 196.951 26.22C197.191 25.7667 197.311 25.2333 197.311 24.62C197.311 23.9933 197.191 23.46 196.951 23.02C196.711 22.58 196.385 22.24 195.971 22C195.558 21.76 195.091 21.64 194.571 21.64C194.051 21.64 193.585 21.76 193.171 22C192.758 22.24 192.425 22.58 192.171 23.02C191.931 23.46 191.811 23.9933 191.811 24.62C191.811 25.2333 191.931 25.7667 192.171 26.22C192.425 26.66 192.758 27 193.171 27.24C193.585 27.48 194.051 27.6 194.571 27.6Z" fill="black"/>
<path d="M106.95 54.084C106.213 54.084 105.527 53.9627 104.892 53.72C104.267 53.468 103.721 53.118 103.254 52.67C102.797 52.2127 102.437 51.6853 102.176 51.088C101.924 50.4813 101.798 49.8187 101.798 49.1C101.798 48.3813 101.924 47.7233 102.176 47.126C102.437 46.5193 102.797 45.992 103.254 45.544C103.721 45.0867 104.267 44.7367 104.892 44.494C105.517 44.242 106.203 44.116 106.95 44.116C107.687 44.116 108.369 44.242 108.994 44.494C109.619 44.7367 110.161 45.082 110.618 45.53C111.085 45.978 111.444 46.5053 111.696 47.112C111.957 47.7187 112.088 48.3813 112.088 49.1C112.088 49.8187 111.957 50.4813 111.696 51.088C111.444 51.6947 111.085 52.222 110.618 52.67C110.161 53.118 109.619 53.468 108.994 53.72C108.369 53.9627 107.687 54.084 106.95 54.084ZM106.95 53.16C107.538 53.16 108.079 53.062 108.574 52.866C109.078 52.6607 109.512 52.376 109.876 52.012C110.249 51.6387 110.539 51.2093 110.744 50.724C110.949 50.2293 111.052 49.688 111.052 49.1C111.052 48.512 110.949 47.9753 110.744 47.49C110.539 46.9953 110.249 46.566 109.876 46.202C109.512 45.8287 109.078 45.544 108.574 45.348C108.079 45.1427 107.538 45.04 106.95 45.04C106.362 45.04 105.816 45.1427 105.312 45.348C104.808 45.544 104.369 45.8287 103.996 46.202C103.632 46.566 103.343 46.9953 103.128 47.49C102.923 47.9753 102.82 48.512 102.82 49.1C102.82 49.6787 102.923 50.2153 103.128 50.71C103.343 51.2047 103.632 51.6387 103.996 52.012C104.369 52.376 104.808 52.6607 105.312 52.866C105.816 53.062 106.362 53.16 106.95 53.16ZM114.322 54V46.65H119.53V47.518H115.064L115.316 47.266V54H114.322ZM124.761 54.07C124.126 54.07 123.552 53.9253 123.039 53.636C122.525 53.3373 122.115 52.9127 121.807 52.362C121.508 51.802 121.359 51.1207 121.359 50.318C121.359 49.5153 121.508 48.8387 121.807 48.288C122.105 47.728 122.511 47.3033 123.025 47.014C123.538 46.7247 124.117 46.58 124.761 46.58C125.461 46.58 126.086 46.7387 126.637 47.056C127.197 47.364 127.635 47.8027 127.953 48.372C128.27 48.932 128.429 49.5807 128.429 50.318C128.429 51.0647 128.27 51.718 127.953 52.278C127.635 52.838 127.197 53.2767 126.637 53.594C126.086 53.9113 125.461 54.07 124.761 54.07ZM120.967 56.716V46.65H121.919V48.862L121.821 50.332L121.961 51.816V56.716H120.967ZM124.691 53.188C125.213 53.188 125.68 53.0713 126.091 52.838C126.501 52.5953 126.828 52.2593 127.071 51.83C127.313 51.3913 127.435 50.8873 127.435 50.318C127.435 49.7487 127.313 49.2493 127.071 48.82C126.828 48.3907 126.501 48.0547 126.091 47.812C125.68 47.5693 125.213 47.448 124.691 47.448C124.168 47.448 123.697 47.5693 123.277 47.812C122.866 48.0547 122.539 48.3907 122.297 48.82C122.063 49.2493 121.947 49.7487 121.947 50.318C121.947 50.8873 122.063 51.3913 122.297 51.83C122.539 52.2593 122.866 52.5953 123.277 52.838C123.697 53.0713 124.168 53.188 124.691 53.188ZM133.588 54.07C132.879 54.07 132.24 53.9113 131.67 53.594C131.11 53.2673 130.667 52.824 130.34 52.264C130.014 51.6947 129.85 51.046 129.85 50.318C129.85 49.5807 130.014 48.932 130.34 48.372C130.667 47.812 131.11 47.3733 131.67 47.056C132.23 46.7387 132.87 46.58 133.588 46.58C134.316 46.58 134.96 46.7387 135.52 47.056C136.09 47.3733 136.533 47.812 136.85 48.372C137.177 48.932 137.34 49.5807 137.34 50.318C137.34 51.046 137.177 51.6947 136.85 52.264C136.533 52.824 136.09 53.2673 135.52 53.594C134.951 53.9113 134.307 54.07 133.588 54.07ZM133.588 53.188C134.12 53.188 134.592 53.0713 135.002 52.838C135.413 52.5953 135.735 52.2593 135.968 51.83C136.211 51.3913 136.332 50.8873 136.332 50.318C136.332 49.7393 136.211 49.2353 135.968 48.806C135.735 48.3767 135.413 48.0453 135.002 47.812C134.592 47.5693 134.125 47.448 133.602 47.448C133.08 47.448 132.613 47.5693 132.202 47.812C131.792 48.0453 131.465 48.3767 131.222 48.806C130.98 49.2353 130.858 49.7393 130.858 50.318C130.858 50.8873 130.98 51.3913 131.222 51.83C131.465 52.2593 131.792 52.5953 132.202 52.838C132.613 53.0713 133.075 53.188 133.588 53.188ZM139.465 54V46.65H140.473L143.805 52.292H143.385L146.773 46.65H147.697V54H146.787V47.784L146.969 47.868L143.805 53.104H143.357L140.165 47.812L140.375 47.77V54H139.465ZM150.525 54V46.65H151.519V49.898H156.153V46.65H157.147V54H156.153V50.752H151.519V54H150.525ZM167.141 54V46.65H168.135V54H167.141ZM163.067 49.24C163.991 49.2493 164.695 49.4547 165.181 49.856C165.666 50.2573 165.909 50.836 165.909 51.592C165.909 52.376 165.647 52.978 165.125 53.398C164.602 53.818 163.855 54.0233 162.885 54.014L159.973 54V46.65H160.967V49.212L163.067 49.24ZM162.815 53.258C163.505 53.2673 164.023 53.132 164.369 52.852C164.723 52.5627 164.901 52.1427 164.901 51.592C164.901 51.0413 164.728 50.64 164.383 50.388C164.037 50.1267 163.515 49.9913 162.815 49.982L160.967 49.954V53.23L162.815 53.258ZM170.965 54V46.65H171.959V52.488L176.873 46.65H177.755V54H176.761V48.148L171.861 54H170.965ZM174.297 45.586C173.681 45.586 173.181 45.432 172.799 45.124C172.425 44.8067 172.229 44.354 172.211 43.766H172.925C172.934 44.1393 173.065 44.4333 173.317 44.648C173.569 44.8627 173.895 44.97 174.297 44.97C174.698 44.97 175.025 44.8627 175.277 44.648C175.538 44.4333 175.673 44.1393 175.683 43.766H176.397C176.387 44.354 176.191 44.8067 175.809 45.124C175.426 45.432 174.922 45.586 174.297 45.586ZM184.268 54V46.65H187.516C188.346 46.65 189 46.8087 189.476 47.126C189.961 47.4433 190.204 47.91 190.204 48.526C190.204 49.1233 189.975 49.5853 189.518 49.912C189.06 50.2293 188.458 50.388 187.712 50.388L187.908 50.094C188.785 50.094 189.429 50.2573 189.84 50.584C190.25 50.9107 190.456 51.382 190.456 51.998C190.456 52.6327 190.222 53.1273 189.756 53.482C189.298 53.8273 188.584 54 187.614 54H184.268ZM185.234 53.216H187.572C188.197 53.216 188.668 53.118 188.986 52.922C189.312 52.7167 189.476 52.39 189.476 51.942C189.476 51.494 189.331 51.1673 189.042 50.962C188.752 50.7567 188.295 50.654 187.67 50.654H185.234V53.216ZM185.234 49.912H187.446C188.015 49.912 188.449 49.8047 188.748 49.59C189.056 49.3753 189.21 49.0627 189.21 48.652C189.21 48.2413 189.056 47.9333 188.748 47.728C188.449 47.5227 188.015 47.42 187.446 47.42H185.234V49.912ZM199.953 54V46.65H200.947V54H199.953ZM195.879 49.24C196.803 49.2493 197.508 49.4547 197.993 49.856C198.478 50.2573 198.721 50.836 198.721 51.592C198.721 52.376 198.46 52.978 197.937 53.398C197.414 53.818 196.668 54.0233 195.697 54.014L192.785 54V46.65H193.779V49.212L195.879 49.24ZM195.627 53.258C196.318 53.2673 196.836 53.132 197.181 52.852C197.536 52.5627 197.713 52.1427 197.713 51.592C197.713 51.0413 197.54 50.64 197.195 50.388C196.85 50.1267 196.327 49.9913 195.627 49.982L193.779 49.954V53.23L195.627 53.258ZM207.081 54.084C206.484 54.084 205.952 53.986 205.485 53.79C205.028 53.594 204.636 53.2953 204.309 52.894C203.983 52.4927 203.735 51.998 203.567 51.41C203.399 50.8127 203.315 50.122 203.315 49.338C203.315 48.638 203.381 48.0267 203.511 47.504C203.642 46.972 203.824 46.5147 204.057 46.132C204.291 45.7493 204.561 45.4273 204.869 45.166C205.187 44.8953 205.527 44.6807 205.891 44.522C206.265 44.354 206.647 44.228 207.039 44.144L210.343 43.374L210.511 44.298L207.403 44.998C207.207 45.0447 206.969 45.11 206.689 45.194C206.419 45.278 206.139 45.404 205.849 45.572C205.569 45.74 205.308 45.9733 205.065 46.272C204.823 46.5707 204.627 46.958 204.477 47.434C204.337 47.9007 204.267 48.484 204.267 49.184C204.267 49.3333 204.272 49.4547 204.281 49.548C204.291 49.632 204.3 49.7253 204.309 49.828C204.328 49.9213 204.342 50.0613 204.351 50.248L203.917 49.884C204.02 49.3147 204.23 48.82 204.547 48.4C204.865 47.9707 205.261 47.6393 205.737 47.406C206.223 47.1633 206.759 47.042 207.347 47.042C208.029 47.042 208.635 47.1913 209.167 47.49C209.699 47.7793 210.115 48.1853 210.413 48.708C210.721 49.2307 210.875 49.8373 210.875 50.528C210.875 51.2093 210.717 51.8207 210.399 52.362C210.091 52.9033 209.653 53.328 209.083 53.636C208.514 53.9347 207.847 54.084 207.081 54.084ZM207.193 53.258C207.716 53.258 208.178 53.1413 208.579 52.908C208.981 52.6653 209.293 52.3387 209.517 51.928C209.751 51.5173 209.867 51.0553 209.867 50.542C209.867 50.038 209.751 49.59 209.517 49.198C209.293 48.806 208.981 48.498 208.579 48.274C208.178 48.0407 207.711 47.924 207.179 47.924C206.657 47.924 206.195 48.036 205.793 48.26C205.392 48.4747 205.075 48.778 204.841 49.17C204.617 49.562 204.505 50.0147 204.505 50.528C204.505 51.0413 204.617 51.5033 204.841 51.914C205.075 52.3247 205.392 52.6513 205.793 52.894C206.204 53.1367 206.671 53.258 207.193 53.258ZM216.03 54.07C215.32 54.07 214.681 53.9113 214.112 53.594C213.552 53.2673 213.108 52.824 212.782 52.264C212.455 51.6947 212.292 51.046 212.292 50.318C212.292 49.5807 212.455 48.932 212.782 48.372C213.108 47.812 213.552 47.3733 214.112 47.056C214.672 46.7387 215.311 46.58 216.03 46.58C216.758 46.58 217.402 46.7387 217.962 47.056C218.531 47.3733 218.974 47.812 219.292 48.372C219.618 48.932 219.782 49.5807 219.782 50.318C219.782 51.046 219.618 51.6947 219.292 52.264C218.974 52.824 218.531 53.2673 217.962 53.594C217.392 53.9113 216.748 54.07 216.03 54.07ZM216.03 53.188C216.562 53.188 217.033 53.0713 217.444 52.838C217.854 52.5953 218.176 52.2593 218.41 51.83C218.652 51.3913 218.774 50.8873 218.774 50.318C218.774 49.7393 218.652 49.2353 218.41 48.806C218.176 48.3767 217.854 48.0453 217.444 47.812C217.033 47.5693 216.566 47.448 216.044 47.448C215.521 47.448 215.054 47.5693 214.644 47.812C214.233 48.0453 213.906 48.3767 213.664 48.806C213.421 49.2353 213.3 49.7393 213.3 50.318C213.3 50.8873 213.421 51.3913 213.664 51.83C213.906 52.2593 214.233 52.5953 214.644 52.838C215.054 53.0713 215.516 53.188 216.03 53.188ZM225.7 54.07C225.066 54.07 224.492 53.9253 223.978 53.636C223.465 53.3373 223.054 52.9127 222.746 52.362C222.448 51.802 222.298 51.1207 222.298 50.318C222.298 49.5153 222.448 48.8387 222.746 48.288C223.045 47.728 223.451 47.3033 223.964 47.014C224.478 46.7247 225.056 46.58 225.7 46.58C226.4 46.58 227.026 46.7387 227.576 47.056C228.136 47.364 228.575 47.8027 228.892 48.372C229.21 48.932 229.368 49.5807 229.368 50.318C229.368 51.0647 229.21 51.718 228.892 52.278C228.575 52.838 228.136 53.2767 227.576 53.594C227.026 53.9113 226.4 54.07 225.7 54.07ZM221.906 56.716V46.65H222.858V48.862L222.76 50.332L222.9 51.816V56.716H221.906ZM225.63 53.188C226.153 53.188 226.62 53.0713 227.03 52.838C227.441 52.5953 227.768 52.2593 228.01 51.83C228.253 51.3913 228.374 50.8873 228.374 50.318C228.374 49.7487 228.253 49.2493 228.01 48.82C227.768 48.3907 227.441 48.0547 227.03 47.812C226.62 47.5693 226.153 47.448 225.63 47.448C225.108 47.448 224.636 47.5693 224.216 47.812C223.806 48.0547 223.479 48.3907 223.236 48.82C223.003 49.2493 222.886 49.7487 222.886 50.318C222.886 50.8873 223.003 51.3913 223.236 51.83C223.479 52.2593 223.806 52.5953 224.216 52.838C224.636 53.0713 225.108 53.188 225.63 53.188ZM243.89 54L241.37 50.36L242.196 49.87L245.08 54H243.89ZM239.718 50.724V49.87H242.042V50.724H239.718ZM242.294 50.43L241.342 50.29L243.792 46.65H244.87L242.294 50.43ZM235.182 54H233.992L236.876 49.87L237.688 50.36L235.182 54ZM240.026 54H239.032V46.65H240.026V54ZM239.34 50.724H237.03V49.87H239.34V50.724ZM236.792 50.43L234.202 46.65H235.28L237.716 50.29L236.792 50.43ZM246.734 54V46.65H247.728V52.488L252.642 46.65H253.524V54H252.53V48.148L247.63 54H246.734ZM256.373 54V46.65H259.621C260.452 46.65 261.105 46.8087 261.581 47.126C262.066 47.4433 262.309 47.91 262.309 48.526C262.309 49.1233 262.08 49.5853 261.623 49.912C261.166 50.2293 260.564 50.388 259.817 50.388L260.013 50.094C260.89 50.094 261.534 50.2573 261.945 50.584C262.356 50.9107 262.561 51.382 262.561 51.998C262.561 52.6327 262.328 53.1273 261.861 53.482C261.404 53.8273 260.69 54 259.719 54H256.373ZM257.339 53.216H259.677C260.302 53.216 260.774 53.118 261.091 52.922C261.418 52.7167 261.581 52.39 261.581 51.942C261.581 51.494 261.436 51.1673 261.147 50.962C260.858 50.7567 260.4 50.654 259.775 50.654H257.339V53.216ZM257.339 49.912H259.551C260.12 49.912 260.554 49.8047 260.853 49.59C261.161 49.3753 261.315 49.0627 261.315 48.652C261.315 48.2413 261.161 47.9333 260.853 47.728C260.554 47.5227 260.12 47.42 259.551 47.42H257.339V49.912ZM267.915 54.07C267.205 54.07 266.566 53.9113 265.997 53.594C265.437 53.2673 264.993 52.824 264.667 52.264C264.34 51.6947 264.177 51.046 264.177 50.318C264.177 49.5807 264.34 48.932 264.667 48.372C264.993 47.812 265.437 47.3733 265.997 47.056C266.557 46.7387 267.196 46.58 267.915 46.58C268.643 46.58 269.287 46.7387 269.847 47.056C270.416 47.3733 270.859 47.812 271.177 48.372C271.503 48.932 271.667 49.5807 271.667 50.318C271.667 51.046 271.503 51.6947 271.177 52.264C270.859 52.824 270.416 53.2673 269.847 53.594C269.277 53.9113 268.633 54.07 267.915 54.07ZM267.915 53.188C268.447 53.188 268.918 53.0713 269.329 52.838C269.739 52.5953 270.061 52.2593 270.295 51.83C270.537 51.3913 270.659 50.8873 270.659 50.318C270.659 49.7393 270.537 49.2353 270.295 48.806C270.061 48.3767 269.739 48.0453 269.329 47.812C268.918 47.5693 268.451 47.448 267.929 47.448C267.406 47.448 266.939 47.5693 266.529 47.812C266.118 48.0453 265.791 48.3767 265.549 48.806C265.306 49.2353 265.185 49.7393 265.185 50.318C265.185 50.8873 265.306 51.3913 265.549 51.83C265.791 52.2593 266.118 52.5953 266.529 52.838C266.939 53.0713 267.401 53.188 267.915 53.188ZM274.918 54V47.252L275.17 47.518H272.132V46.65H278.698V47.518H275.66L275.912 47.252V54H274.918ZM280.135 54V46.65H281.129V49.898H285.763V46.65H286.757V54H285.763V50.752H281.129V54H280.135ZM296.75 54V46.65H297.744V54H296.75ZM292.676 49.24C293.6 49.2493 294.305 49.4547 294.79 49.856C295.275 50.2573 295.518 50.836 295.518 51.592C295.518 52.376 295.257 52.978 294.734 53.398C294.211 53.818 293.465 54.0233 292.494 54.014L289.582 54V46.65H290.576V49.212L292.676 49.24ZM292.424 53.258C293.115 53.2673 293.633 53.132 293.978 52.852C294.333 52.5627 294.51 52.1427 294.51 51.592C294.51 51.0413 294.337 50.64 293.992 50.388C293.647 50.1267 293.124 49.9913 292.424 49.982L290.576 49.954V53.23L292.424 53.258ZM299.37 54L302.478 49.968L302.464 50.458L299.51 46.65H300.63L303.052 49.8L302.632 49.786L305.054 46.65H306.146L303.164 50.5L303.178 49.968L306.314 54H305.18L302.618 50.64L303.01 50.696L300.49 54H299.37ZM307.313 56.044L307.929 53.454L308.041 54.056C307.827 54.056 307.645 53.986 307.495 53.846C307.355 53.706 307.285 53.524 307.285 53.3C307.285 53.076 307.355 52.894 307.495 52.754C307.645 52.614 307.822 52.544 308.027 52.544C308.242 52.544 308.415 52.6187 308.545 52.768C308.685 52.9173 308.755 53.0947 308.755 53.3C308.755 53.3747 308.751 53.4493 308.741 53.524C308.732 53.5987 308.713 53.6827 308.685 53.776C308.657 53.8693 308.62 53.9813 308.573 54.112L307.985 56.044H307.313ZM102.414 70V62.65H109.022V70H108.028V63.252L108.28 63.518H103.156L103.408 63.252V70H102.414ZM113.248 70V63.252L113.5 63.518H110.462V62.65H117.028V63.518H113.99L114.242 63.252V70H113.248ZM118.465 70V62.65H119.459V68.488L124.373 62.65H125.255V70H124.261V64.148L119.361 70H118.465ZM128.103 70V62.65H129.097V69.132H133.591V62.65H134.585V70H128.103ZM134.837 71.778V69.916L135.089 70H133.591V69.132H135.775V71.778H134.837ZM141.338 70V62.65H142.332V68.488L147.246 62.65H148.128V70H147.134V64.148L142.234 70H141.338ZM154.641 70V62.65H161.249V70H160.255V63.252L160.507 63.518H155.383L155.635 63.252V70H154.641ZM164.074 70V62.65H165.068V68.488L169.982 62.65H170.864V70H169.87V64.148L164.97 70H164.074ZM175.113 70V63.252L175.365 63.518H172.327V62.65H178.893V63.518H175.855L176.107 63.252V70H175.113ZM183.012 70.07C182.303 70.07 181.664 69.9113 181.094 69.594C180.534 69.2673 180.091 68.824 179.764 68.264C179.438 67.6947 179.274 67.046 179.274 66.318C179.274 65.5807 179.438 64.932 179.764 64.372C180.091 63.812 180.534 63.3733 181.094 63.056C181.654 62.7387 182.294 62.58 183.012 62.58C183.74 62.58 184.384 62.7387 184.944 63.056C185.514 63.3733 185.957 63.812 186.274 64.372C186.601 64.932 186.764 65.5807 186.764 66.318C186.764 67.046 186.601 67.6947 186.274 68.264C185.957 68.824 185.514 69.2673 184.944 69.594C184.375 69.9113 183.731 70.07 183.012 70.07ZM183.012 69.188C183.544 69.188 184.016 69.0713 184.426 68.838C184.837 68.5953 185.159 68.2593 185.392 67.83C185.635 67.3913 185.756 66.8873 185.756 66.318C185.756 65.7393 185.635 65.2353 185.392 64.806C185.159 64.3767 184.837 64.0453 184.426 63.812C184.016 63.5693 183.549 63.448 183.026 63.448C182.504 63.448 182.037 63.5693 181.626 63.812C181.216 64.0453 180.889 64.3767 180.646 64.806C180.404 65.2353 180.282 65.7393 180.282 66.318C180.282 66.8873 180.404 67.3913 180.646 67.83C180.889 68.2593 181.216 68.5953 181.626 68.838C182.037 69.0713 182.499 69.188 183.012 69.188ZM188.889 70V62.65H189.897L193.229 68.292H192.809L196.197 62.65H197.121V70H196.211V63.784L196.393 63.868L193.229 69.104H192.781L189.589 63.812L189.799 63.77V70H188.889ZM199.949 70V62.65H200.943V69.132H205.437V62.65H206.431V70H199.949ZM206.683 71.778V69.916L206.935 70H205.437V69.132H207.621V71.778H206.683ZM212.669 70.07C211.904 70.07 211.232 69.9113 210.653 69.594C210.075 69.2673 209.622 68.824 209.295 68.264C208.969 67.6947 208.805 67.046 208.805 66.318C208.805 65.59 208.959 64.946 209.267 64.386C209.585 63.826 210.014 63.3873 210.555 63.07C211.106 62.7433 211.722 62.58 212.403 62.58C213.094 62.58 213.705 62.7387 214.237 63.056C214.779 63.364 215.203 63.8027 215.511 64.372C215.819 64.932 215.973 65.5807 215.973 66.318C215.973 66.3647 215.969 66.416 215.959 66.472C215.959 66.5187 215.959 66.57 215.959 66.626H209.561V65.884H215.427L215.035 66.178C215.035 65.646 214.919 65.1747 214.685 64.764C214.461 64.344 214.153 64.0173 213.761 63.784C213.369 63.5507 212.917 63.434 212.403 63.434C211.899 63.434 211.447 63.5507 211.045 63.784C210.644 64.0173 210.331 64.344 210.107 64.764C209.883 65.184 209.771 65.6647 209.771 66.206V66.36C209.771 66.92 209.893 67.4147 210.135 67.844C210.387 68.264 210.733 68.5953 211.171 68.838C211.619 69.0713 212.128 69.188 212.697 69.188C213.145 69.188 213.561 69.1087 213.943 68.95C214.335 68.7913 214.671 68.5487 214.951 68.222L215.511 68.866C215.185 69.258 214.774 69.5567 214.279 69.762C213.794 69.9673 213.257 70.07 212.669 70.07ZM218.174 70V62.65H221.422C222.252 62.65 222.906 62.8087 223.382 63.126C223.867 63.4433 224.11 63.91 224.11 64.526C224.11 65.1233 223.881 65.5853 223.424 65.912C222.966 66.2293 222.364 66.388 221.618 66.388L221.814 66.094C222.691 66.094 223.335 66.2573 223.746 66.584C224.156 66.9107 224.362 67.382 224.362 67.998C224.362 68.6327 224.128 69.1273 223.662 69.482C223.204 69.8273 222.49 70 221.52 70H218.174ZM219.14 69.216H221.478C222.103 69.216 222.574 69.118 222.892 68.922C223.218 68.7167 223.382 68.39 223.382 67.942C223.382 67.494 223.237 67.1673 222.948 66.962C222.658 66.7567 222.201 66.654 221.576 66.654H219.14V69.216ZM219.14 65.912H221.352C221.921 65.912 222.355 65.8047 222.654 65.59C222.962 65.3753 223.116 65.0627 223.116 64.652C223.116 64.2413 222.962 63.9333 222.654 63.728C222.355 63.5227 221.921 63.42 221.352 63.42H219.14V65.912Z" fill="black"/>
<defs>
<filter id="filter0_d_8_110" x="0" y="0" width="83" height="83" filterUnits="userSpaceOnUse" color-interpolation-filters="sRGB">
<feFlood flood-opacity="0" result="BackgroundImageFix"/>
<feColorMatrix in="SourceAlpha" type="matrix" values="0 0 0 0 0 0 0 0 0 0 0 0 0 0 0 0 0 0 127 0" result="hardAlpha"/>
<feOffset/>
<feGaussianBlur stdDeviation="3.5"/>
<feComposite in2="hardAlpha" operator="out"/>
<feColorMatrix type="matrix" values="0 0 0 0 0 0 0 0 0 0 0 0 0 0 0 0 0 0 0.3 0"/>
<feBlend mode="normal" in2="BackgroundImageFix" result="effect1_dropShadow_8_110"/>
<feBlend mode="normal" in="SourceGraphic" in2="effect1_dropShadow_8_110" result="shape"/>
</filter>
</defs>
</svg>
