<svg width="369" height="84" viewBox="0 0 369 84" fill="none" xmlns="http://www.w3.org/2000/svg">
<g filter="url(#filter0_d_8_151)">
<rect x="7" y="7" width="70" height="70" rx="20" fill="#FF50CE" shape-rendering="crispEdges"/>
<path d="M42 55L39.97 53.1297C32.76 46.5128 28 42.1346 28 36.7929C28 32.4147 31.388 29 35.7 29C38.136 29 40.474 30.1477 42 31.9471C43.526 30.1477 45.864 29 48.3 29C52.612 29 56 32.4147 56 36.7929C56 42.1346 51.24 46.5128 44.03 53.1297L42 55Z" fill="white"/>
</g>
<path d="M102.74 30V16H105.96V25.12L112.64 16H115.68V30H112.48V20.9L105.8 30H102.74ZM117.486 30L122.306 23.68L122.246 25.4L117.626 19.24H121.126L124.046 23.26L122.726 23.3L125.746 19.24H129.066L124.426 25.34V23.66L129.226 30H125.686L122.626 25.72L123.926 25.9L120.886 30H117.486ZM135.066 29.98L135.226 27.42C135.306 27.4333 135.386 27.4467 135.466 27.46C135.546 27.46 135.619 27.46 135.686 27.46C136.059 27.46 136.352 27.3533 136.566 27.14C136.779 26.9267 136.939 26.64 137.046 26.28C137.152 25.9067 137.226 25.4867 137.266 25.02C137.319 24.5533 137.359 24.0667 137.386 23.56L137.546 19.24H146.746V30H143.626V21.04L144.326 21.8H139.606L140.266 21L140.126 23.7C140.086 24.66 140.006 25.54 139.886 26.34C139.779 27.14 139.599 27.8333 139.346 28.42C139.092 28.9933 138.752 29.44 138.326 29.76C137.899 30.0667 137.352 30.22 136.686 30.22C136.446 30.22 136.192 30.2 135.926 30.16C135.659 30.12 135.372 30.06 135.066 29.98ZM149.746 30V19.24H152.846V23.2H156.006V25.9H152.846V30H149.746ZM159.926 30.16C158.819 30.16 157.833 29.92 156.966 29.44C156.099 28.96 155.419 28.3067 154.926 27.48C154.433 26.64 154.186 25.6867 154.186 24.62C154.186 23.54 154.433 22.5867 154.926 21.76C155.419 20.92 156.099 20.2667 156.966 19.8C157.833 19.32 158.819 19.08 159.926 19.08C161.033 19.08 162.013 19.32 162.866 19.8C163.733 20.2667 164.413 20.92 164.906 21.76C165.399 22.5867 165.646 23.54 165.646 24.62C165.646 25.6867 165.399 26.64 164.906 27.48C164.413 28.32 163.733 28.98 162.866 29.46C162.013 29.9267 161.033 30.16 159.926 30.16ZM159.926 27.6C160.433 27.6 160.879 27.48 161.266 27.24C161.666 27 161.979 26.66 162.206 26.22C162.446 25.7667 162.566 25.2333 162.566 24.62C162.566 23.9933 162.446 23.46 162.206 23.02C161.979 22.58 161.666 22.24 161.266 22C160.879 21.76 160.433 21.64 159.926 21.64C159.433 21.64 158.979 21.76 158.566 22C158.166 22.24 157.846 22.58 157.606 23.02C157.379 23.46 157.266 23.9933 157.266 24.62C157.266 25.2333 157.379 25.7667 157.606 26.22C157.846 26.66 158.166 27 158.566 27.24C158.979 27.48 159.433 27.6 159.926 27.6ZM173.153 30.24C172.273 30.24 171.473 30.1133 170.753 29.86C170.033 29.5933 169.406 29.1867 168.873 28.64C168.353 28.08 167.946 27.3667 167.653 26.5C167.373 25.6333 167.233 24.6 167.233 23.4C167.233 22.5467 167.306 21.7667 167.453 21.06C167.599 20.3533 167.819 19.7133 168.113 19.14C168.406 18.5533 168.779 18.04 169.233 17.6C169.699 17.1467 170.239 16.7733 170.853 16.48C171.479 16.1733 172.186 15.94 172.973 15.78L178.093 14.76L178.513 17.44L173.993 18.34C173.726 18.3933 173.419 18.4667 173.073 18.56C172.739 18.64 172.399 18.7667 172.053 18.94C171.719 19.1133 171.406 19.36 171.113 19.68C170.833 19.9867 170.606 20.3933 170.433 20.9C170.259 21.3933 170.173 22.0067 170.173 22.74C170.173 22.9667 170.179 23.14 170.193 23.26C170.219 23.38 170.239 23.5067 170.253 23.64C170.279 23.7733 170.293 23.98 170.293 24.26L169.293 23.28C169.586 22.6533 169.959 22.12 170.413 21.68C170.879 21.24 171.413 20.9067 172.013 20.68C172.626 20.44 173.306 20.32 174.053 20.32C175.066 20.32 175.953 20.5267 176.713 20.94C177.486 21.34 178.086 21.9067 178.513 22.64C178.939 23.3733 179.153 24.2067 179.153 25.14C179.153 26.1533 178.899 27.0467 178.393 27.82C177.886 28.58 177.179 29.1733 176.273 29.6C175.379 30.0267 174.339 30.24 173.153 30.24ZM173.313 27.82C173.833 27.82 174.293 27.7067 174.693 27.48C175.093 27.24 175.399 26.9267 175.613 26.54C175.839 26.14 175.953 25.6933 175.953 25.2C175.953 24.72 175.839 24.2933 175.613 23.92C175.399 23.5467 175.093 23.2533 174.693 23.04C174.293 22.8267 173.826 22.72 173.293 22.72C172.773 22.72 172.306 22.8267 171.893 23.04C171.479 23.24 171.159 23.52 170.933 23.88C170.706 24.24 170.593 24.66 170.593 25.14C170.593 25.6333 170.706 26.0867 170.933 26.5C171.173 26.9 171.493 27.22 171.893 27.46C172.306 27.7 172.779 27.82 173.313 27.82ZM187.718 30V26.42L188.158 26.92H185.178C183.631 26.92 182.418 26.6 181.538 25.96C180.658 25.32 180.218 24.4 180.218 23.2C180.218 21.92 180.678 20.94 181.598 20.26C182.531 19.58 183.784 19.24 185.358 19.24H190.498V30H187.718ZM180.058 30L182.918 25.9H186.098L183.378 30H180.058ZM187.718 25.46V20.98L188.158 21.78H185.418C184.778 21.78 184.278 21.9 183.918 22.14C183.571 22.38 183.398 22.7667 183.398 23.3C183.398 24.3267 184.058 24.84 185.378 24.84H188.158L187.718 25.46ZM195.796 30V21.08L196.496 21.8H192.156V19.24H202.536V21.8H198.196L198.896 21.08V30H195.796Z" fill="black"/>
<path d="M102.652 54V44.2H103.506L107.986 51.844H107.538L111.976 44.2H112.83V54H111.836V45.754H112.074L107.986 52.754H107.496L103.38 45.754H103.646V54H102.652ZM123.062 54V46.65H124.056V54H123.062ZM118.988 49.24C119.912 49.2493 120.617 49.4547 121.102 49.856C121.588 50.2573 121.83 50.836 121.83 51.592C121.83 52.376 121.569 52.978 121.046 53.398C120.524 53.818 119.777 54.0233 118.806 54.014L115.894 54V46.65H116.888V49.212L118.988 49.24ZM118.736 53.258C119.427 53.2673 119.945 53.132 120.29 52.852C120.645 52.5627 120.822 52.1427 120.822 51.592C120.822 51.0413 120.65 50.64 120.304 50.388C119.959 50.1267 119.436 49.9913 118.736 49.982L116.888 49.954V53.23L118.736 53.258ZM133.575 54.07C132.865 54.07 132.226 53.9113 131.657 53.594C131.097 53.2673 130.653 52.824 130.327 52.264C130 51.6947 129.837 51.046 129.837 50.318C129.837 49.5807 130 48.932 130.327 48.372C130.653 47.812 131.097 47.3733 131.657 47.056C132.217 46.7387 132.856 46.58 133.575 46.58C134.303 46.58 134.947 46.7387 135.507 47.056C136.076 47.3733 136.519 47.812 136.837 48.372C137.163 48.932 137.327 49.5807 137.327 50.318C137.327 51.046 137.163 51.6947 136.837 52.264C136.519 52.824 136.076 53.2673 135.507 53.594C134.937 53.9113 134.293 54.07 133.575 54.07ZM133.575 53.188C134.107 53.188 134.578 53.0713 134.989 52.838C135.399 52.5953 135.721 52.2593 135.955 51.83C136.197 51.3913 136.319 50.8873 136.319 50.318C136.319 49.7393 136.197 49.2353 135.955 48.806C135.721 48.3767 135.399 48.0453 134.989 47.812C134.578 47.5693 134.111 47.448 133.589 47.448C133.066 47.448 132.599 47.5693 132.189 47.812C131.778 48.0453 131.451 48.3767 131.209 48.806C130.966 49.2353 130.845 49.7393 130.845 50.318C130.845 50.8873 130.966 51.3913 131.209 51.83C131.451 52.2593 131.778 52.5953 132.189 52.838C132.599 53.0713 133.061 53.188 133.575 53.188ZM144.841 54L141.817 50.36L142.643 49.87L146.017 54H144.841ZM139.451 54V46.65H140.445V54H139.451ZM140.137 50.724V49.87H142.503V50.724H140.137ZM142.727 50.43L141.803 50.29L144.729 46.65H145.807L142.727 50.43ZM151.38 54.07C150.745 54.07 150.171 53.9253 149.658 53.636C149.145 53.3373 148.734 52.9127 148.426 52.362C148.127 51.802 147.978 51.1207 147.978 50.318C147.978 49.5153 148.127 48.8387 148.426 48.288C148.725 47.728 149.131 47.3033 149.644 47.014C150.157 46.7247 150.736 46.58 151.38 46.58C152.08 46.58 152.705 46.7387 153.256 47.056C153.816 47.364 154.255 47.8027 154.572 48.372C154.889 48.932 155.048 49.5807 155.048 50.318C155.048 51.0647 154.889 51.718 154.572 52.278C154.255 52.838 153.816 53.2767 153.256 53.594C152.705 53.9113 152.08 54.07 151.38 54.07ZM147.586 56.716V46.65H148.538V48.862L148.44 50.332L148.58 51.816V56.716H147.586ZM151.31 53.188C151.833 53.188 152.299 53.0713 152.71 52.838C153.121 52.5953 153.447 52.2593 153.69 51.83C153.933 51.3913 154.054 50.8873 154.054 50.318C154.054 49.7487 153.933 49.2493 153.69 48.82C153.447 48.3907 153.121 48.0547 152.71 47.812C152.299 47.5693 151.833 47.448 151.31 47.448C150.787 47.448 150.316 47.5693 149.896 47.812C149.485 48.0547 149.159 48.3907 148.916 48.82C148.683 49.2493 148.566 49.7487 148.566 50.318C148.566 50.8873 148.683 51.3913 148.916 51.83C149.159 52.2593 149.485 52.5953 149.896 52.838C150.316 53.0713 150.787 53.188 151.31 53.188ZM157.104 56.786C156.759 56.786 156.428 56.73 156.11 56.618C155.802 56.506 155.536 56.338 155.312 56.114L155.774 55.372C155.961 55.5493 156.162 55.6847 156.376 55.778C156.6 55.8807 156.848 55.932 157.118 55.932C157.445 55.932 157.725 55.8387 157.958 55.652C158.201 55.4747 158.43 55.1573 158.644 54.7L159.12 53.622L159.232 53.468L162.256 46.65H163.236L159.554 54.882C159.349 55.358 159.12 55.736 158.868 56.016C158.626 56.296 158.36 56.492 158.07 56.604C157.781 56.7253 157.459 56.786 157.104 56.786ZM159.064 54.21L155.676 46.65H156.712L159.708 53.398L159.064 54.21ZM173.083 54L170.563 50.36L171.389 49.87L174.273 54H173.083ZM168.911 50.724V49.87H171.235V50.724H168.911ZM171.487 50.43L170.535 50.29L172.985 46.65H174.063L171.487 50.43ZM164.375 54H163.185L166.069 49.87L166.881 50.36L164.375 54ZM169.219 54H168.225V46.65H169.219V54ZM168.533 50.724H166.223V49.87H168.533V50.724ZM165.985 50.43L163.395 46.65H164.473L166.909 50.29L165.985 50.43ZM180.355 54V52.376L180.313 52.11V49.394C180.313 48.7687 180.136 48.288 179.781 47.952C179.436 47.616 178.918 47.448 178.227 47.448C177.751 47.448 177.298 47.5273 176.869 47.686C176.44 47.8447 176.076 48.0547 175.777 48.316L175.329 47.574C175.702 47.2567 176.15 47.014 176.673 46.846C177.196 46.6687 177.746 46.58 178.325 46.58C179.277 46.58 180.01 46.818 180.523 47.294C181.046 47.7607 181.307 48.4747 181.307 49.436V54H180.355ZM177.821 54.07C177.27 54.07 176.79 53.9813 176.379 53.804C175.978 53.6173 175.67 53.3653 175.455 53.048C175.24 52.7213 175.133 52.348 175.133 51.928C175.133 51.5453 175.222 51.2 175.399 50.892C175.586 50.5747 175.884 50.3227 176.295 50.136C176.715 49.94 177.275 49.842 177.975 49.842H180.509V50.584H178.003C177.294 50.584 176.799 50.71 176.519 50.962C176.248 51.214 176.113 51.5267 176.113 51.9C176.113 52.32 176.276 52.656 176.603 52.908C176.93 53.16 177.387 53.286 177.975 53.286C178.535 53.286 179.016 53.16 179.417 52.908C179.828 52.6467 180.126 52.2733 180.313 51.788L180.537 52.474C180.35 52.9593 180.024 53.3467 179.557 53.636C179.1 53.9253 178.521 54.07 177.821 54.07ZM187.103 54.07C186.338 54.07 185.666 53.9113 185.087 53.594C184.508 53.2673 184.056 52.824 183.729 52.264C183.402 51.6947 183.239 51.046 183.239 50.318C183.239 49.59 183.393 48.946 183.701 48.386C184.018 47.826 184.448 47.3873 184.989 47.07C185.54 46.7433 186.156 46.58 186.837 46.58C187.528 46.58 188.139 46.7387 188.671 47.056C189.212 47.364 189.637 47.8027 189.945 48.372C190.253 48.932 190.407 49.5807 190.407 50.318C190.407 50.3647 190.402 50.416 190.393 50.472C190.393 50.5187 190.393 50.57 190.393 50.626H183.995V49.884H189.861L189.469 50.178C189.469 49.646 189.352 49.1747 189.119 48.764C188.895 48.344 188.587 48.0173 188.195 47.784C187.803 47.5507 187.35 47.434 186.837 47.434C186.333 47.434 185.88 47.5507 185.479 47.784C185.078 48.0173 184.765 48.344 184.541 48.764C184.317 49.184 184.205 49.6647 184.205 50.206V50.36C184.205 50.92 184.326 51.4147 184.569 51.844C184.821 52.264 185.166 52.5953 185.605 52.838C186.053 53.0713 186.562 53.188 187.131 53.188C187.579 53.188 187.994 53.1087 188.377 52.95C188.769 52.7913 189.105 52.5487 189.385 52.222L189.945 52.866C189.618 53.258 189.208 53.5567 188.713 53.762C188.228 53.9673 187.691 54.07 187.103 54.07ZM192.607 54V46.65H193.615L196.947 52.292H196.527L199.915 46.65H200.839V54H199.929V47.784L200.111 47.868L196.947 53.104H196.499L193.307 47.812L193.517 47.77V54H192.607ZM205.988 53.986L206.058 53.132C206.123 53.1413 206.184 53.1553 206.24 53.174C206.305 53.1833 206.361 53.188 206.408 53.188C206.707 53.188 206.945 53.076 207.122 52.852C207.309 52.628 207.449 52.3293 207.542 51.956C207.635 51.5827 207.701 51.1627 207.738 50.696C207.775 50.22 207.808 49.744 207.836 49.268L207.962 46.65H213.352V54H212.358V47.224L212.61 47.518H208.606L208.844 47.21L208.732 49.338C208.704 49.9727 208.653 50.5793 208.578 51.158C208.513 51.7367 208.405 52.2453 208.256 52.684C208.116 53.1227 207.92 53.468 207.668 53.72C207.416 53.9627 207.094 54.084 206.702 54.084C206.59 54.084 206.473 54.0747 206.352 54.056C206.24 54.0373 206.119 54.014 205.988 53.986ZM216.178 54V46.65H217.172V49.814H219.412V50.724H217.172V54H216.178ZM222.506 54.07C221.806 54.07 221.176 53.9113 220.616 53.594C220.065 53.2673 219.631 52.824 219.314 52.264C218.996 51.6947 218.838 51.046 218.838 50.318C218.838 49.5807 218.996 48.932 219.314 48.372C219.631 47.812 220.065 47.3733 220.616 47.056C221.176 46.7387 221.806 46.58 222.506 46.58C223.206 46.58 223.831 46.7387 224.382 47.056C224.932 47.3733 225.366 47.812 225.684 48.372C226.001 48.932 226.16 49.5807 226.16 50.318C226.16 51.046 226.001 51.6947 225.684 52.264C225.366 52.824 224.932 53.2673 224.382 53.594C223.831 53.9113 223.206 54.07 222.506 54.07ZM222.506 53.202C223.019 53.202 223.476 53.0807 223.878 52.838C224.279 52.5953 224.596 52.2593 224.83 51.83C225.063 51.3913 225.18 50.8873 225.18 50.318C225.18 49.7393 225.063 49.2353 224.83 48.806C224.596 48.3767 224.279 48.0453 223.878 47.812C223.476 47.5693 223.019 47.448 222.506 47.448C222.002 47.448 221.544 47.5693 221.134 47.812C220.732 48.0453 220.415 48.3767 220.182 48.806C219.948 49.2353 219.832 49.7393 219.832 50.318C219.832 50.8873 219.948 51.3913 220.182 51.83C220.415 52.2593 220.732 52.5953 221.134 52.838C221.544 53.0807 222.002 53.202 222.506 53.202ZM231.595 54.084C230.998 54.084 230.466 53.986 229.999 53.79C229.542 53.594 229.15 53.2953 228.823 52.894C228.496 52.4927 228.249 51.998 228.081 51.41C227.913 50.8127 227.829 50.122 227.829 49.338C227.829 48.638 227.894 48.0267 228.025 47.504C228.156 46.972 228.338 46.5147 228.571 46.132C228.804 45.7493 229.075 45.4273 229.383 45.166C229.7 44.8953 230.041 44.6807 230.405 44.522C230.778 44.354 231.161 44.228 231.553 44.144L234.857 43.374L235.025 44.298L231.917 44.998C231.721 45.0447 231.483 45.11 231.203 45.194C230.932 45.278 230.652 45.404 230.363 45.572C230.083 45.74 229.822 45.9733 229.579 46.272C229.336 46.5707 229.14 46.958 228.991 47.434C228.851 47.9007 228.781 48.484 228.781 49.184C228.781 49.3333 228.786 49.4547 228.795 49.548C228.804 49.632 228.814 49.7253 228.823 49.828C228.842 49.9213 228.856 50.0613 228.865 50.248L228.431 49.884C228.534 49.3147 228.744 48.82 229.061 48.4C229.378 47.9707 229.775 47.6393 230.251 47.406C230.736 47.1633 231.273 47.042 231.861 47.042C232.542 47.042 233.149 47.1913 233.681 47.49C234.213 47.7793 234.628 48.1853 234.927 48.708C235.235 49.2307 235.389 49.8373 235.389 50.528C235.389 51.2093 235.23 51.8207 234.913 52.362C234.605 52.9033 234.166 53.328 233.597 53.636C233.028 53.9347 232.36 54.084 231.595 54.084ZM231.707 53.258C232.23 53.258 232.692 53.1413 233.093 52.908C233.494 52.6653 233.807 52.3387 234.031 51.928C234.264 51.5173 234.381 51.0553 234.381 50.542C234.381 50.038 234.264 49.59 234.031 49.198C233.807 48.806 233.494 48.498 233.093 48.274C232.692 48.0407 232.225 47.924 231.693 47.924C231.17 47.924 230.708 48.036 230.307 48.26C229.906 48.4747 229.588 48.778 229.355 49.17C229.131 49.562 229.019 50.0147 229.019 50.528C229.019 51.0413 229.131 51.5033 229.355 51.914C229.588 52.3247 229.906 52.6513 230.307 52.894C230.718 53.1367 231.184 53.258 231.707 53.258ZM240.543 54.07C239.834 54.07 239.195 53.9113 238.625 53.594C238.065 53.2673 237.622 52.824 237.295 52.264C236.969 51.6947 236.805 51.046 236.805 50.318C236.805 49.5807 236.969 48.932 237.295 48.372C237.622 47.812 238.065 47.3733 238.625 47.056C239.185 46.7387 239.825 46.58 240.543 46.58C241.271 46.58 241.915 46.7387 242.475 47.056C243.045 47.3733 243.488 47.812 243.805 48.372C244.132 48.932 244.295 49.5807 244.295 50.318C244.295 51.046 244.132 51.6947 243.805 52.264C243.488 52.824 243.045 53.2673 242.475 53.594C241.906 53.9113 241.262 54.07 240.543 54.07ZM240.543 53.188C241.075 53.188 241.547 53.0713 241.957 52.838C242.368 52.5953 242.69 52.2593 242.923 51.83C243.166 51.3913 243.287 50.8873 243.287 50.318C243.287 49.7393 243.166 49.2353 242.923 48.806C242.69 48.3767 242.368 48.0453 241.957 47.812C241.547 47.5693 241.08 47.448 240.557 47.448C240.035 47.448 239.568 47.5693 239.157 47.812C238.747 48.0453 238.42 48.3767 238.177 48.806C237.935 49.2353 237.813 49.7393 237.813 50.318C237.813 50.8873 237.935 51.3913 238.177 51.83C238.42 52.2593 238.747 52.5953 239.157 52.838C239.568 53.0713 240.03 53.188 240.543 53.188ZM246.42 54V46.65H249.668C250.499 46.65 251.152 46.8087 251.628 47.126C252.113 47.4433 252.356 47.91 252.356 48.526C252.356 49.1233 252.127 49.5853 251.67 49.912C251.213 50.2293 250.611 50.388 249.864 50.388L250.06 50.094C250.937 50.094 251.581 50.2573 251.992 50.584C252.403 50.9107 252.608 51.382 252.608 51.998C252.608 52.6327 252.375 53.1273 251.908 53.482C251.451 53.8273 250.737 54 249.766 54H246.42ZM247.386 53.216H249.724C250.349 53.216 250.821 53.118 251.138 52.922C251.465 52.7167 251.628 52.39 251.628 51.942C251.628 51.494 251.483 51.1673 251.194 50.962C250.905 50.7567 250.447 50.654 249.822 50.654H247.386V53.216ZM247.386 49.912H249.598C250.167 49.912 250.601 49.8047 250.9 49.59C251.208 49.3753 251.362 49.0627 251.362 48.652C251.362 48.2413 251.208 47.9333 250.9 47.728C250.601 47.5227 250.167 47.42 249.598 47.42H247.386V49.912ZM258.101 49.24C259.025 49.2493 259.725 49.4547 260.201 49.856C260.687 50.2573 260.929 50.836 260.929 51.592C260.929 52.376 260.668 52.978 260.145 53.398C259.632 53.818 258.885 54.0233 257.905 54.014L254.937 54V46.65H255.931V49.212L258.101 49.24ZM257.849 53.258C258.531 53.2673 259.044 53.132 259.389 52.852C259.744 52.5627 259.921 52.1427 259.921 51.592C259.921 51.0413 259.749 50.64 259.403 50.388C259.058 50.1267 258.54 49.9913 257.849 49.982L255.931 49.954V53.23L257.849 53.258ZM262.826 54V46.65H263.82V49.814H266.06V50.724H263.82V54H262.826ZM269.154 54.07C268.454 54.07 267.824 53.9113 267.264 53.594C266.713 53.2673 266.279 52.824 265.962 52.264C265.645 51.6947 265.486 51.046 265.486 50.318C265.486 49.5807 265.645 48.932 265.962 48.372C266.279 47.812 266.713 47.3733 267.264 47.056C267.824 46.7387 268.454 46.58 269.154 46.58C269.854 46.58 270.479 46.7387 271.03 47.056C271.581 47.3733 272.015 47.812 272.332 48.372C272.649 48.932 272.808 49.5807 272.808 50.318C272.808 51.046 272.649 51.6947 272.332 52.264C272.015 52.824 271.581 53.2673 271.03 53.594C270.479 53.9113 269.854 54.07 269.154 54.07ZM269.154 53.202C269.667 53.202 270.125 53.0807 270.526 52.838C270.927 52.5953 271.245 52.2593 271.478 51.83C271.711 51.3913 271.828 50.8873 271.828 50.318C271.828 49.7393 271.711 49.2353 271.478 48.806C271.245 48.3767 270.927 48.0453 270.526 47.812C270.125 47.5693 269.667 47.448 269.154 47.448C268.65 47.448 268.193 47.5693 267.782 47.812C267.381 48.0453 267.063 48.3767 266.83 48.806C266.597 49.2353 266.48 49.7393 266.48 50.318C266.48 50.8873 266.597 51.3913 266.83 51.83C267.063 52.2593 267.381 52.5953 267.782 52.838C268.193 53.0807 268.65 53.202 269.154 53.202ZM278.603 54V46.65H279.597V52.488L284.511 46.65H285.393V54H284.399V48.148L279.499 54H278.603ZM104.388 70.084C104.995 70.084 105.541 69.9907 106.026 69.804C106.521 69.6173 106.913 69.3607 107.202 69.034C107.491 68.698 107.636 68.3107 107.636 67.872C107.636 67.312 107.398 66.8687 106.922 66.542C106.455 66.2153 105.802 66.052 104.962 66.052L104.92 66.318C105.396 66.318 105.821 66.2433 106.194 66.094C106.567 65.9447 106.866 65.7347 107.09 65.464C107.314 65.1933 107.426 64.876 107.426 64.512C107.426 64.1013 107.286 63.7513 107.006 63.462C106.726 63.1633 106.348 62.9347 105.872 62.776C105.405 62.6173 104.878 62.5473 104.29 62.566C103.861 62.566 103.431 62.6267 103.002 62.748C102.582 62.86 102.157 63.028 101.728 63.252L102.008 64.022C102.391 63.826 102.778 63.6813 103.17 63.588C103.562 63.4853 103.94 63.4293 104.304 63.42C104.705 63.42 105.065 63.4667 105.382 63.56C105.699 63.6533 105.947 63.7933 106.124 63.98C106.311 64.1667 106.404 64.3907 106.404 64.652C106.404 64.8947 106.325 65.1047 106.166 65.282C106.017 65.4593 105.802 65.5947 105.522 65.688C105.242 65.7813 104.92 65.828 104.556 65.828H103.366V66.556H104.626C105.242 66.556 105.727 66.668 106.082 66.892C106.437 67.1067 106.614 67.41 106.614 67.802C106.614 68.0727 106.521 68.3153 106.334 68.53C106.147 68.7447 105.886 68.9127 105.55 69.034C105.214 69.1553 104.817 69.2207 104.36 69.23C103.903 69.23 103.441 69.1647 102.974 69.034C102.507 68.894 102.097 68.6933 101.742 68.432L101.42 69.174C101.821 69.482 102.283 69.7107 102.806 69.86C103.329 70.0093 103.856 70.084 104.388 70.084ZM114.457 70V68.376L114.415 68.11V65.394C114.415 64.7687 114.237 64.288 113.883 63.952C113.537 63.616 113.019 63.448 112.329 63.448C111.853 63.448 111.4 63.5273 110.971 63.686C110.541 63.8447 110.177 64.0547 109.879 64.316L109.431 63.574C109.804 63.2567 110.252 63.014 110.775 62.846C111.297 62.6687 111.848 62.58 112.427 62.58C113.379 62.58 114.111 62.818 114.625 63.294C115.147 63.7607 115.409 64.4747 115.409 65.436V70H114.457ZM111.923 70.07C111.372 70.07 110.891 69.9813 110.481 69.804C110.079 69.6173 109.771 69.3653 109.557 69.048C109.342 68.7213 109.235 68.348 109.235 67.928C109.235 67.5453 109.323 67.2 109.501 66.892C109.687 66.5747 109.986 66.3227 110.397 66.136C110.817 65.94 111.377 65.842 112.077 65.842H114.611V66.584H112.105C111.395 66.584 110.901 66.71 110.621 66.962C110.35 67.214 110.215 67.5267 110.215 67.9C110.215 68.32 110.378 68.656 110.705 68.908C111.031 69.16 111.489 69.286 112.077 69.286C112.637 69.286 113.117 69.16 113.519 68.908C113.929 68.6467 114.228 68.2733 114.415 67.788L114.639 68.474C114.452 68.9593 114.125 69.3467 113.659 69.636C113.201 69.9253 112.623 70.07 111.923 70.07ZM121.359 70.084C120.761 70.084 120.229 69.986 119.763 69.79C119.305 69.594 118.913 69.2953 118.587 68.894C118.26 68.4927 118.013 67.998 117.845 67.41C117.677 66.8127 117.593 66.122 117.593 65.338C117.593 64.638 117.658 64.0267 117.789 63.504C117.919 62.972 118.101 62.5147 118.335 62.132C118.568 61.7493 118.839 61.4273 119.147 61.166C119.464 60.8953 119.805 60.6807 120.169 60.522C120.542 60.354 120.925 60.228 121.317 60.144L124.621 59.374L124.789 60.298L121.681 60.998C121.485 61.0447 121.247 61.11 120.967 61.194C120.696 61.278 120.416 61.404 120.127 61.572C119.847 61.74 119.585 61.9733 119.343 62.272C119.1 62.5707 118.904 62.958 118.755 63.434C118.615 63.9007 118.545 64.484 118.545 65.184C118.545 65.3333 118.549 65.4547 118.559 65.548C118.568 65.632 118.577 65.7253 118.587 65.828C118.605 65.9213 118.619 66.0613 118.629 66.248L118.195 65.884C118.297 65.3147 118.507 64.82 118.825 64.4C119.142 63.9707 119.539 63.6393 120.015 63.406C120.5 63.1633 121.037 63.042 121.625 63.042C122.306 63.042 122.913 63.1913 123.445 63.49C123.977 63.7793 124.392 64.1853 124.691 64.708C124.999 65.2307 125.153 65.8373 125.153 66.528C125.153 67.2093 124.994 67.8207 124.677 68.362C124.369 68.9033 123.93 69.328 123.361 69.636C122.791 69.9347 122.124 70.084 121.359 70.084ZM121.471 69.258C121.993 69.258 122.455 69.1413 122.857 68.908C123.258 68.6653 123.571 68.3387 123.795 67.928C124.028 67.5173 124.145 67.0553 124.145 66.542C124.145 66.038 124.028 65.59 123.795 65.198C123.571 64.806 123.258 64.498 122.857 64.274C122.455 64.0407 121.989 63.924 121.457 63.924C120.934 63.924 120.472 64.036 120.071 64.26C119.669 64.4747 119.352 64.778 119.119 65.17C118.895 65.562 118.783 66.0147 118.783 66.528C118.783 67.0413 118.895 67.5033 119.119 67.914C119.352 68.3247 119.669 68.6513 120.071 68.894C120.481 69.1367 120.948 69.258 121.471 69.258ZM130.307 70.07C129.598 70.07 128.958 69.9113 128.389 69.594C127.829 69.2673 127.386 68.824 127.059 68.264C126.732 67.6947 126.569 67.046 126.569 66.318C126.569 65.5807 126.732 64.932 127.059 64.372C127.386 63.812 127.829 63.3733 128.389 63.056C128.949 62.7387 129.588 62.58 130.307 62.58C131.035 62.58 131.679 62.7387 132.239 63.056C132.808 63.3733 133.252 63.812 133.569 64.372C133.896 64.932 134.059 65.5807 134.059 66.318C134.059 67.046 133.896 67.6947 133.569 68.264C133.252 68.824 132.808 69.2673 132.239 69.594C131.67 69.9113 131.026 70.07 130.307 70.07ZM130.307 69.188C130.839 69.188 131.31 69.0713 131.721 68.838C132.132 68.5953 132.454 68.2593 132.687 67.83C132.93 67.3913 133.051 66.8873 133.051 66.318C133.051 65.7393 132.93 65.2353 132.687 64.806C132.454 64.3767 132.132 64.0453 131.721 63.812C131.31 63.5693 130.844 63.448 130.321 63.448C129.798 63.448 129.332 63.5693 128.921 63.812C128.51 64.0453 128.184 64.3767 127.941 64.806C127.698 65.2353 127.577 65.7393 127.577 66.318C127.577 66.8873 127.698 67.3913 127.941 67.83C128.184 68.2593 128.51 68.5953 128.921 68.838C129.332 69.0713 129.794 69.188 130.307 69.188ZM137.31 70V63.252L137.562 63.518H134.524V62.65H141.09V63.518H138.052L138.304 63.252V70H137.31ZM145.209 70.07C144.5 70.07 143.861 69.9113 143.291 69.594C142.731 69.2673 142.288 68.824 141.961 68.264C141.635 67.6947 141.471 67.046 141.471 66.318C141.471 65.5807 141.635 64.932 141.961 64.372C142.288 63.812 142.731 63.3733 143.291 63.056C143.851 62.7387 144.491 62.58 145.209 62.58C145.937 62.58 146.581 62.7387 147.141 63.056C147.711 63.3733 148.154 63.812 148.471 64.372C148.798 64.932 148.961 65.5807 148.961 66.318C148.961 67.046 148.798 67.6947 148.471 68.264C148.154 68.824 147.711 69.2673 147.141 69.594C146.572 69.9113 145.928 70.07 145.209 70.07ZM145.209 69.188C145.741 69.188 146.213 69.0713 146.623 68.838C147.034 68.5953 147.356 68.2593 147.589 67.83C147.832 67.3913 147.953 66.8873 147.953 66.318C147.953 65.7393 147.832 65.2353 147.589 64.806C147.356 64.3767 147.034 64.0453 146.623 63.812C146.213 63.5693 145.746 63.448 145.223 63.448C144.701 63.448 144.234 63.5693 143.823 63.812C143.413 64.0453 143.086 64.3767 142.843 64.806C142.601 65.2353 142.479 65.7393 142.479 66.318C142.479 66.8873 142.601 67.3913 142.843 67.83C143.086 68.2593 143.413 68.5953 143.823 68.838C144.234 69.0713 144.696 69.188 145.209 69.188ZM151.086 70V62.65H152.08V68.488L156.994 62.65H157.876V70H156.882V64.148L151.982 70H151.086ZM154.418 61.586C153.802 61.586 153.303 61.432 152.92 61.124C152.547 60.8067 152.351 60.354 152.332 59.766H153.046C153.055 60.1393 153.186 60.4333 153.438 60.648C153.69 60.8627 154.017 60.97 154.418 60.97C154.819 60.97 155.146 60.8627 155.398 60.648C155.659 60.4333 155.795 60.1393 155.804 59.766H156.518C156.509 60.354 156.313 60.8067 155.93 61.124C155.547 61.432 155.043 61.586 154.418 61.586ZM164.389 70V62.65H165.383V65.898H170.017V62.65H171.011V70H170.017V66.752H165.383V70H164.389ZM178.4 70V68.376L178.358 68.11V65.394C178.358 64.7687 178.181 64.288 177.826 63.952C177.481 63.616 176.963 63.448 176.272 63.448C175.796 63.448 175.343 63.5273 174.914 63.686C174.485 63.8447 174.121 64.0547 173.822 64.316L173.374 63.574C173.747 63.2567 174.195 63.014 174.718 62.846C175.241 62.6687 175.791 62.58 176.37 62.58C177.322 62.58 178.055 62.818 178.568 63.294C179.091 63.7607 179.352 64.4747 179.352 65.436V70H178.4ZM175.866 70.07C175.315 70.07 174.835 69.9813 174.424 69.804C174.023 69.6173 173.715 69.3653 173.5 69.048C173.285 68.7213 173.178 68.348 173.178 67.928C173.178 67.5453 173.267 67.2 173.444 66.892C173.631 66.5747 173.929 66.3227 174.34 66.136C174.76 65.94 175.32 65.842 176.02 65.842H178.554V66.584H176.048C175.339 66.584 174.844 66.71 174.564 66.962C174.293 67.214 174.158 67.5267 174.158 67.9C174.158 68.32 174.321 68.656 174.648 68.908C174.975 69.16 175.432 69.286 176.02 69.286C176.58 69.286 177.061 69.16 177.462 68.908C177.873 68.6467 178.171 68.2733 178.358 67.788L178.582 68.474C178.395 68.9593 178.069 69.3467 177.602 69.636C177.145 69.9253 176.566 70.07 175.866 70.07ZM186.828 69.132L186.604 69.398V62.65H187.598V69.398L187.332 69.132H191.434L191.168 69.398V62.65H192.162V70H181.998V62.65H182.992V69.398L182.74 69.132H186.828ZM194.986 70V62.65H195.98V68.488L200.894 62.65H201.776V70H200.782V64.148L195.882 70H194.986ZM203.421 70L206.529 65.968L206.515 66.458L203.561 62.65H204.681L207.103 65.8L206.683 65.786L209.105 62.65H210.197L207.215 66.5L207.229 65.968L210.365 70H209.231L206.669 66.64L207.061 66.696L204.541 70H203.421ZM220.698 69.524V63.518H217.156L217.072 65.156C217.053 65.6507 217.021 66.136 216.974 66.612C216.937 67.088 216.867 67.5267 216.764 67.928C216.671 68.32 216.535 68.642 216.358 68.894C216.181 69.1367 215.952 69.2767 215.672 69.314L214.678 69.132C214.967 69.1413 215.205 69.0387 215.392 68.824C215.579 68.6 215.723 68.2967 215.826 67.914C215.929 67.5313 216.003 67.0973 216.05 66.612C216.097 66.1173 216.134 65.6133 216.162 65.1L216.26 62.65H221.692V69.524H220.698ZM214.37 71.778V69.132H222.84V71.778H221.902V70H215.308V71.778H214.37ZM228.571 70.07C227.937 70.07 227.363 69.9253 226.849 69.636C226.336 69.3373 225.925 68.9127 225.617 68.362C225.319 67.802 225.169 67.1207 225.169 66.318C225.169 65.5153 225.319 64.8387 225.617 64.288C225.916 63.728 226.322 63.3033 226.835 63.014C227.349 62.7247 227.927 62.58 228.571 62.58C229.271 62.58 229.897 62.7387 230.447 63.056C231.007 63.364 231.446 63.8027 231.763 64.372C232.081 64.932 232.239 65.5807 232.239 66.318C232.239 67.0647 232.081 67.718 231.763 68.278C231.446 68.838 231.007 69.2767 230.447 69.594C229.897 69.9113 229.271 70.07 228.571 70.07ZM224.777 72.716V62.65H225.729V64.862L225.631 66.332L225.771 67.816V72.716H224.777ZM228.501 69.188C229.024 69.188 229.491 69.0713 229.901 68.838C230.312 68.5953 230.639 68.2593 230.881 67.83C231.124 67.3913 231.245 66.8873 231.245 66.318C231.245 65.7487 231.124 65.2493 230.881 64.82C230.639 64.3907 230.312 64.0547 229.901 63.812C229.491 63.5693 229.024 63.448 228.501 63.448C227.979 63.448 227.507 63.5693 227.087 63.812C226.677 64.0547 226.35 64.3907 226.107 64.82C225.874 65.2493 225.757 65.7487 225.757 66.318C225.757 66.8873 225.874 67.3913 226.107 67.83C226.35 68.2593 226.677 68.5953 227.087 68.838C227.507 69.0713 227.979 69.188 228.501 69.188ZM234.296 72.786C233.951 72.786 233.619 72.73 233.302 72.618C232.994 72.506 232.728 72.338 232.504 72.114L232.966 71.372C233.153 71.5493 233.353 71.6847 233.568 71.778C233.792 71.8807 234.039 71.932 234.31 71.932C234.637 71.932 234.917 71.8387 235.15 71.652C235.393 71.4747 235.621 71.1573 235.836 70.7L236.312 69.622L236.424 69.468L239.448 62.65H240.428L236.746 70.882C236.541 71.358 236.312 71.736 236.06 72.016C235.817 72.296 235.551 72.492 235.262 72.604C234.973 72.7253 234.651 72.786 234.296 72.786ZM236.256 70.21L232.868 62.65H233.904L236.9 69.398L236.256 70.21ZM243.759 70.084C244.366 70.084 244.912 69.9907 245.397 69.804C245.892 69.6173 246.284 69.3607 246.573 69.034C246.862 68.698 247.007 68.3107 247.007 67.872C247.007 67.312 246.769 66.8687 246.293 66.542C245.826 66.2153 245.173 66.052 244.333 66.052L244.291 66.318C244.767 66.318 245.192 66.2433 245.565 66.094C245.938 65.9447 246.237 65.7347 246.461 65.464C246.685 65.1933 246.797 64.876 246.797 64.512C246.797 64.1013 246.657 63.7513 246.377 63.462C246.097 63.1633 245.719 62.9347 245.243 62.776C244.776 62.6173 244.249 62.5473 243.661 62.566C243.232 62.566 242.802 62.6267 242.373 62.748C241.953 62.86 241.528 63.028 241.099 63.252L241.379 64.022C241.762 63.826 242.149 63.6813 242.541 63.588C242.933 63.4853 243.311 63.4293 243.675 63.42C244.076 63.42 244.436 63.4667 244.753 63.56C245.07 63.6533 245.318 63.7933 245.495 63.98C245.682 64.1667 245.775 64.3907 245.775 64.652C245.775 64.8947 245.696 65.1047 245.537 65.282C245.388 65.4593 245.173 65.5947 244.893 65.688C244.613 65.7813 244.291 65.828 243.927 65.828H242.737V66.556H243.997C244.613 66.556 245.098 66.668 245.453 66.892C245.808 67.1067 245.985 67.41 245.985 67.802C245.985 68.0727 245.892 68.3153 245.705 68.53C245.518 68.7447 245.257 68.9127 244.921 69.034C244.585 69.1553 244.188 69.2207 243.731 69.23C243.274 69.23 242.812 69.1647 242.345 69.034C241.878 68.894 241.468 68.6933 241.113 68.432L240.791 69.174C241.192 69.482 241.654 69.7107 242.177 69.86C242.7 70.0093 243.227 70.084 243.759 70.084ZM252.414 70.07C251.648 70.07 250.976 69.9113 250.398 69.594C249.819 69.2673 249.366 68.824 249.04 68.264C248.713 67.6947 248.55 67.046 248.55 66.318C248.55 65.59 248.704 64.946 249.012 64.386C249.329 63.826 249.758 63.3873 250.3 63.07C250.85 62.7433 251.466 62.58 252.148 62.58C252.838 62.58 253.45 62.7387 253.982 63.056C254.523 63.364 254.948 63.8027 255.256 64.372C255.564 64.932 255.718 65.5807 255.718 66.318C255.718 66.3647 255.713 66.416 255.704 66.472C255.704 66.5187 255.704 66.57 255.704 66.626H249.306V65.884H255.172L254.78 66.178C254.78 65.646 254.663 65.1747 254.43 64.764C254.206 64.344 253.898 64.0173 253.506 63.784C253.114 63.5507 252.661 63.434 252.148 63.434C251.644 63.434 251.191 63.5507 250.79 63.784C250.388 64.0173 250.076 64.344 249.852 64.764C249.628 65.184 249.516 65.6647 249.516 66.206V66.36C249.516 66.92 249.637 67.4147 249.88 67.844C250.132 68.264 250.477 68.5953 250.916 68.838C251.364 69.0713 251.872 69.188 252.442 69.188C252.89 69.188 253.305 69.1087 253.688 68.95C254.08 68.7913 254.416 68.5487 254.696 68.222L255.256 68.866C254.929 69.258 254.518 69.5567 254.024 69.762C253.538 69.9673 253.002 70.07 252.414 70.07ZM257.918 70V62.65H258.912V68.488L263.826 62.65H264.708V70H263.714V64.148L258.814 70H257.918ZM261.25 61.586C260.634 61.586 260.135 61.432 259.752 61.124C259.379 60.8067 259.183 60.354 259.164 59.766H259.878C259.887 60.1393 260.018 60.4333 260.27 60.648C260.522 60.8627 260.849 60.97 261.25 60.97C261.651 60.97 261.978 60.8627 262.23 60.648C262.491 60.4333 262.627 60.1393 262.636 59.766H263.35C263.341 60.354 263.145 60.8067 262.762 61.124C262.379 61.432 261.875 61.586 261.25 61.586Z" fill="black"/>
<defs>
<filter id="filter0_d_8_151" x="0" y="0" width="84" height="84" filterUnits="userSpaceOnUse" color-interpolation-filters="sRGB">
<feFlood flood-opacity="0" result="BackgroundImageFix"/>
<feColorMatrix in="SourceAlpha" type="matrix" values="0 0 0 0 0 0 0 0 0 0 0 0 0 0 0 0 0 0 127 0" result="hardAlpha"/>
<feOffset/>
<feGaussianBlur stdDeviation="3.5"/>
<feComposite in2="hardAlpha" operator="out"/>
<feColorMatrix type="matrix" values="0 0 0 0 0 0 0 0 0 0 0 0 0 0 0 0 0 0 0.3 0"/>
<feBlend mode="normal" in2="BackgroundImageFix" result="effect1_dropShadow_8_151"/>
<feBlend mode="normal" in="SourceGraphic" in2="effect1_dropShadow_8_151" result="shape"/>
</filter>
</defs>
</svg>
